<svg width="109" height="32" viewBox="0 0 109 32" fill="none" xmlns="http://www.w3.org/2000/svg">
<path d="M52.125 25V21.975H56.6C57.7333 21.975 58.725 21.7417 59.575 21.275C60.425 20.7917 61.0833 20.1167 61.55 19.25C62.0333 18.3833 62.275 17.3583 62.275 16.175C62.275 15.025 62.0333 14.025 61.55 13.175C61.0667 12.3083 60.4 11.6417 59.55 11.175C58.7 10.6917 57.7167 10.45 56.6 10.45H52.05V7.425H56.65C57.95 7.425 59.15 7.64167 60.25 8.075C61.3667 8.50833 62.3333 9.125 63.15 9.925C63.9833 10.7083 64.625 11.6333 65.075 12.7C65.5417 13.7667 65.775 14.9333 65.775 16.2C65.775 17.4667 65.5417 18.6417 65.075 19.725C64.625 20.7917 63.9917 21.725 63.175 22.525C62.3583 23.3083 61.3917 23.9167 60.275 24.35C59.175 24.7833 57.9833 25 56.7 25H52.125ZM49.8 25V7.425H53.2V25H49.8ZM73.1768 25.25C72.0768 25.25 71.0851 24.975 70.2018 24.425C69.3184 23.875 68.6268 23.125 68.1268 22.175C67.6268 21.225 67.3768 20.1583 67.3768 18.975C67.3768 17.775 67.6268 16.7 68.1268 15.75C68.6268 14.8 69.3184 14.05 70.2018 13.5C71.0851 12.95 72.0768 12.675 73.1768 12.675C74.0434 12.675 74.8184 12.85 75.5018 13.2C76.1851 13.55 76.7268 14.0417 77.1268 14.675C77.5434 15.2917 77.7684 15.9917 77.8018 16.775V21.125C77.7684 21.925 77.5434 22.6333 77.1268 23.25C76.7268 23.8667 76.1851 24.3583 75.5018 24.725C74.8184 25.075 74.0434 25.25 73.1768 25.25ZM73.7768 22.225C74.6934 22.225 75.4351 21.925 76.0018 21.325C76.5684 20.7083 76.8518 19.9167 76.8518 18.95C76.8518 18.3167 76.7184 17.7583 76.4518 17.275C76.2018 16.775 75.8434 16.3917 75.3768 16.125C74.9268 15.8417 74.3934 15.7 73.7768 15.7C73.1768 15.7 72.6434 15.8417 72.1768 16.125C71.7268 16.3917 71.3684 16.775 71.1018 17.275C70.8518 17.7583 70.7268 18.3167 70.7268 18.95C70.7268 19.6 70.8518 20.175 71.1018 20.675C71.3684 21.1583 71.7268 21.5417 72.1768 21.825C72.6434 22.0917 73.1768 22.225 73.7768 22.225ZM76.6768 25V21.75L77.2018 18.8L76.6768 15.9V12.925H79.9268V25H76.6768ZM90.374 25L87.199 20.1L86.524 19.6L81.824 12.925H85.699L88.624 17.35L89.249 17.825L94.224 25H90.374ZM81.574 25L86.499 18.1L88.374 20.325L85.274 25H81.574ZM89.374 19.575L87.449 17.375L90.324 12.925H93.999L89.374 19.575ZM100.643 25.25C99.5426 25.25 98.5509 24.975 97.6676 24.425C96.7842 23.875 96.0926 23.125 95.5926 22.175C95.0926 21.225 94.8426 20.1583 94.8426 18.975C94.8426 17.775 95.0926 16.7 95.5926 15.75C96.0926 14.8 96.7842 14.05 97.6676 13.5C98.5509 12.95 99.5426 12.675 100.643 12.675C101.509 12.675 102.284 12.85 102.968 13.2C103.651 13.55 104.193 14.0417 104.593 14.675C105.009 15.2917 105.234 15.9917 105.268 16.775V21.125C105.234 21.925 105.009 22.6333 104.593 23.25C104.193 23.8667 103.651 24.3583 102.968 24.725C102.284 25.075 101.509 25.25 100.643 25.25ZM101.243 22.225C102.159 22.225 102.901 21.925 103.468 21.325C104.034 20.7083 104.318 19.9167 104.318 18.95C104.318 18.3167 104.184 17.7583 103.918 17.275C103.668 16.775 103.309 16.3917 102.843 16.125C102.393 15.8417 101.859 15.7 101.243 15.7C100.643 15.7 100.109 15.8417 99.6426 16.125C99.1926 16.3917 98.8342 16.775 98.5676 17.275C98.3176 17.7583 98.1926 18.3167 98.1926 18.95C98.1926 19.6 98.3176 20.175 98.5676 20.675C98.8342 21.1583 99.1926 21.5417 99.6426 21.825C100.109 22.0917 100.643 22.225 101.243 22.225ZM104.143 25V21.75L104.668 18.8L104.143 15.9V12.925H107.393V25H104.143Z" fill="#475569"/>
<g clip-path="url(#clip0_94_1136)">
<path d="M9.25098 12.9638L36.0982 32L38.9732 3.56842L9.25098 12.9638Z" fill="#00CAE3"/>
<path d="M16.7537 0L0 28.1475L31.8218 23.5148L16.7537 0Z" fill="#0F79F3"/>
</g>
<defs>
<clipPath id="clip0_94_1136">
<rect width="38.9731" height="32" fill="white"/>
</clipPath>
</defs>
</svg>
