<svg width="164" height="51" viewBox="0 0 164 51" fill="none" xmlns="http://www.w3.org/2000/svg">
<path d="M81.4634 36.0164V31.6604H87.9074C89.5394 31.6604 90.9674 31.3244 92.1914 30.6524C93.4154 29.9564 94.3634 28.9844 95.0354 27.7364C95.7314 26.4884 96.0794 25.0124 96.0794 23.3084C96.0794 21.6524 95.7314 20.2124 95.0354 18.9884C94.3394 17.7404 93.3794 16.7804 92.1554 16.1084C90.9314 15.4124 89.5154 15.0644 87.9074 15.0644H81.3554V10.7084H87.9794C89.8514 10.7084 91.5794 11.0204 93.1634 11.6444C94.7714 12.2684 96.1634 13.1564 97.3394 14.3084C98.5394 15.4364 99.4634 16.7684 100.111 18.3044C100.783 19.8404 101.119 21.5204 101.119 23.3444C101.119 25.1684 100.783 26.8604 100.111 28.4204C99.4634 29.9564 98.5514 31.3004 97.3754 32.4524C96.1994 33.5804 94.8074 34.4564 93.1994 35.0804C91.6154 35.7044 89.8994 36.0164 88.0514 36.0164H81.4634ZM78.1154 36.0164V10.7084H83.0114V36.0164H78.1154ZM111.778 36.3764C110.194 36.3764 108.766 35.9804 107.494 35.1884C106.222 34.3964 105.226 33.3164 104.506 31.9484C103.786 30.5804 103.426 29.0444 103.426 27.3404C103.426 25.6124 103.786 24.0644 104.506 22.6964C105.226 21.3284 106.222 20.2484 107.494 19.4564C108.766 18.6644 110.194 18.2684 111.778 18.2684C113.026 18.2684 114.142 18.5204 115.126 19.0244C116.11 19.5284 116.89 20.2364 117.466 21.1484C118.066 22.0364 118.39 23.0444 118.438 24.1724V30.4364C118.39 31.5884 118.066 32.6084 117.466 33.4964C116.89 34.3844 116.11 35.0924 115.126 35.6204C114.142 36.1244 113.026 36.3764 111.778 36.3764ZM112.642 32.0204C113.962 32.0204 115.03 31.5884 115.846 30.7244C116.662 29.8364 117.07 28.6964 117.07 27.3044C117.07 26.3924 116.878 25.5884 116.494 24.8924C116.134 24.1724 115.618 23.6204 114.946 23.2364C114.298 22.8284 113.53 22.6244 112.642 22.6244C111.778 22.6244 111.01 22.8284 110.338 23.2364C109.69 23.6204 109.174 24.1724 108.79 24.8924C108.43 25.5884 108.25 26.3924 108.25 27.3044C108.25 28.2404 108.43 29.0684 108.79 29.7884C109.174 30.4844 109.69 31.0364 110.338 31.4444C111.01 31.8284 111.778 32.0204 112.642 32.0204ZM116.818 36.0164V31.3364L117.574 27.0884L116.818 22.9124V18.6284H121.498V36.0164H116.818ZM136.542 36.0164L131.97 28.9604L130.998 28.2404L124.23 18.6284H129.81L134.022 25.0004L134.922 25.6844L142.086 36.0164H136.542ZM123.87 36.0164L130.962 26.0804L133.662 29.2844L129.198 36.0164H123.87ZM135.102 28.2044L132.33 25.0364L136.47 18.6284H141.762L135.102 28.2044ZM151.329 36.3764C149.745 36.3764 148.317 35.9804 147.045 35.1884C145.773 34.3964 144.777 33.3164 144.057 31.9484C143.337 30.5804 142.977 29.0444 142.977 27.3404C142.977 25.6124 143.337 24.0644 144.057 22.6964C144.777 21.3284 145.773 20.2484 147.045 19.4564C148.317 18.6644 149.745 18.2684 151.329 18.2684C152.577 18.2684 153.693 18.5204 154.677 19.0244C155.661 19.5284 156.441 20.2364 157.017 21.1484C157.617 22.0364 157.941 23.0444 157.989 24.1724V30.4364C157.941 31.5884 157.617 32.6084 157.017 33.4964C156.441 34.3844 155.661 35.0924 154.677 35.6204C153.693 36.1244 152.577 36.3764 151.329 36.3764ZM152.193 32.0204C153.513 32.0204 154.581 31.5884 155.397 30.7244C156.213 29.8364 156.621 28.6964 156.621 27.3044C156.621 26.3924 156.429 25.5884 156.045 24.8924C155.685 24.1724 155.169 23.6204 154.497 23.2364C153.849 22.8284 153.081 22.6244 152.193 22.6244C151.329 22.6244 150.561 22.8284 149.889 23.2364C149.241 23.6204 148.725 24.1724 148.341 24.8924C147.981 25.5884 147.801 26.3924 147.801 27.3044C147.801 28.2404 147.981 29.0684 148.341 29.7884C148.725 30.4844 149.241 31.0364 149.889 31.4444C150.561 31.8284 151.329 32.0204 152.193 32.0204ZM156.369 36.0164V31.3364L157.125 27.0884L156.369 22.9124V18.6284H161.049V36.0164H156.369Z" fill="#475569"/>
<g clip-path="url(#clip0_445_5908)">
<path d="M15.3057 20.2723L57.2545 50.0164L61.7466 5.59204L15.3057 20.2723Z" fill="#00CAE3"/>
<path d="M27.0301 0.0163574L0.852539 43.9968L50.5741 36.7583L27.0301 0.0163574Z" fill="#0F79F3"/>
</g>
<defs>
<clipPath id="clip0_445_5908">
<rect width="60.8954" height="50" fill="white" transform="translate(0.852539 0.0163574)"/>
</clipPath>
</defs>
</svg>
