<svg width="108" height="32" viewBox="0 0 108 32" fill="none" xmlns="http://www.w3.org/2000/svg">
<path d="M51.9121 25V21.975H56.3871C57.5204 21.975 58.5121 21.7417 59.3621 21.275C60.2121 20.7917 60.8704 20.1167 61.3371 19.25C61.8204 18.3833 62.0621 17.3583 62.0621 16.175C62.0621 15.025 61.8204 14.025 61.3371 13.175C60.8538 12.3083 60.1871 11.6417 59.3371 11.175C58.4871 10.6917 57.5038 10.45 56.3871 10.45H51.8371V7.425H56.4371C57.7371 7.425 58.9371 7.64167 60.0371 8.075C61.1538 8.50833 62.1204 9.125 62.9371 9.925C63.7704 10.7083 64.4121 11.6333 64.8621 12.7C65.3288 13.7667 65.5621 14.9333 65.5621 16.2C65.5621 17.4667 65.3288 18.6417 64.8621 19.725C64.4121 20.7917 63.7788 21.725 62.9621 22.525C62.1454 23.3083 61.1788 23.9167 60.0621 24.35C58.9621 24.7833 57.7704 25 56.4871 25H51.9121ZM49.5871 25V7.425H52.9871V25H49.5871ZM72.9639 25.25C71.8639 25.25 70.8722 24.975 69.9889 24.425C69.1055 23.875 68.4139 23.125 67.9139 22.175C67.4139 21.225 67.1639 20.1583 67.1639 18.975C67.1639 17.775 67.4139 16.7 67.9139 15.75C68.4139 14.8 69.1055 14.05 69.9889 13.5C70.8722 12.95 71.8639 12.675 72.9639 12.675C73.8305 12.675 74.6055 12.85 75.2889 13.2C75.9722 13.55 76.5139 14.0417 76.9139 14.675C77.3305 15.2917 77.5555 15.9917 77.5889 16.775V21.125C77.5555 21.925 77.3305 22.6333 76.9139 23.25C76.5139 23.8667 75.9722 24.3583 75.2889 24.725C74.6055 25.075 73.8305 25.25 72.9639 25.25ZM73.5639 22.225C74.4805 22.225 75.2222 21.925 75.7889 21.325C76.3555 20.7083 76.6389 19.9167 76.6389 18.95C76.6389 18.3167 76.5055 17.7583 76.2389 17.275C75.9889 16.775 75.6305 16.3917 75.1639 16.125C74.7139 15.8417 74.1805 15.7 73.5639 15.7C72.9639 15.7 72.4305 15.8417 71.9639 16.125C71.5139 16.3917 71.1555 16.775 70.8889 17.275C70.6389 17.7583 70.5139 18.3167 70.5139 18.95C70.5139 19.6 70.6389 20.175 70.8889 20.675C71.1555 21.1583 71.5139 21.5417 71.9639 21.825C72.4305 22.0917 72.9639 22.225 73.5639 22.225ZM76.4639 25V21.75L76.9889 18.8L76.4639 15.9V12.925H79.7139V25H76.4639ZM90.1611 25L86.9861 20.1L86.3111 19.6L81.6111 12.925H85.4861L88.4111 17.35L89.0361 17.825L94.0111 25H90.1611ZM81.3611 25L86.2861 18.1L88.1611 20.325L85.0611 25H81.3611ZM89.1611 19.575L87.2361 17.375L90.1111 12.925H93.7861L89.1611 19.575ZM100.43 25.25C99.3297 25.25 98.338 24.975 97.4547 24.425C96.5714 23.875 95.8797 23.125 95.3797 22.175C94.8797 21.225 94.6297 20.1583 94.6297 18.975C94.6297 17.775 94.8797 16.7 95.3797 15.75C95.8797 14.8 96.5714 14.05 97.4547 13.5C98.338 12.95 99.3297 12.675 100.43 12.675C101.296 12.675 102.071 12.85 102.755 13.2C103.438 13.55 103.98 14.0417 104.38 14.675C104.796 15.2917 105.021 15.9917 105.055 16.775V21.125C105.021 21.925 104.796 22.6333 104.38 23.25C103.98 23.8667 103.438 24.3583 102.755 24.725C102.071 25.075 101.296 25.25 100.43 25.25ZM101.03 22.225C101.946 22.225 102.688 21.925 103.255 21.325C103.821 20.7083 104.105 19.9167 104.105 18.95C104.105 18.3167 103.971 17.7583 103.705 17.275C103.455 16.775 103.096 16.3917 102.63 16.125C102.18 15.8417 101.646 15.7 101.03 15.7C100.43 15.7 99.8964 15.8417 99.4297 16.125C98.9797 16.3917 98.6214 16.775 98.3547 17.275C98.1047 17.7583 97.9797 18.3167 97.9797 18.95C97.9797 19.6 98.1047 20.175 98.3547 20.675C98.6214 21.1583 98.9797 21.5417 99.4297 21.825C99.8964 22.0917 100.43 22.225 101.03 22.225ZM103.93 25V21.75L104.455 18.8L103.93 15.9V12.925H107.18V25H103.93Z" fill="white"/>
<g clip-path="url(#clip0_292_3851)">
<path d="M9.25 12.9638L36.0973 32L38.9722 3.56842L9.25 12.9638Z" fill="#00CAE3"/>
<path d="M16.7537 0L0 28.1475L31.8218 23.5148L16.7537 0Z" fill="#0F79F3"/>
</g>
<defs>
<clipPath id="clip0_292_3851">
<rect width="38.9731" height="32" fill="white"/>
</clipPath>
</defs>
</svg>
