<svg width="35" height="36" viewBox="0 0 35 36" fill="none" xmlns="http://www.w3.org/2000/svg">
<g clip-path="url(#clip0_165_693)">
<path d="M34.8719 14.575C35.0934 14.8806 35.0253 15.308 34.7196 15.5296L29.6048 19.2374C29.4838 19.3251 29.3434 19.3676 29.2041 19.3676C29.0014 19.3676 28.8011 19.2777 28.6666 19.1069L27.489 17.6116C27.2554 17.315 27.3065 16.8852 27.6031 16.6517C27.8996 16.418 28.3295 16.4691 28.563 16.7657L29.3342 17.7449L33.9172 14.4227C34.2228 14.2012 34.6502 14.2693 34.8719 14.575ZM12.6136 17.6278C12.6136 19.8353 10.8178 21.6312 8.61038 21.6312C6.40292 21.6312 4.60705 19.8353 4.60705 17.6278C4.60705 15.4204 6.40292 13.6246 8.61038 13.6246C10.8178 13.6246 12.6136 15.4204 12.6136 17.6278ZM11.2465 17.6278C11.2465 16.1743 10.0639 14.9917 8.61038 14.9917C7.15686 14.9917 5.97424 16.1743 5.97424 17.6278C5.97424 19.0813 7.15679 20.264 8.61038 20.264C10.064 20.264 11.2465 19.0813 11.2465 17.6278ZM33.9172 27.5352L29.3342 30.8575L28.563 29.8783C28.3295 29.5816 27.8997 29.5306 27.6031 29.7642C27.3065 29.9978 27.2554 30.4276 27.4891 30.7242L28.6667 32.2195C28.8012 32.3903 29.0014 32.4801 29.2042 32.4801C29.3435 32.4801 29.4839 32.4377 29.6049 32.35L34.7196 28.6422C35.0253 28.4206 35.0935 27.9932 34.8719 27.6875C34.6502 27.3819 34.2228 27.3137 33.9172 27.5352ZM32.792 32.0614V34.2627C32.792 34.6402 32.486 34.9463 32.1084 34.9463H24.851C24.4734 34.9463 24.1674 34.6402 24.1674 34.2627V31.424H20.2261C20.0449 31.424 19.8709 31.3519 19.7428 31.2237C19.6146 31.0956 19.5425 30.9217 19.5425 30.7404V18.3114H17.2187V18.4202C17.2187 19.0842 16.6786 19.6244 16.0146 19.6244C15.5677 19.6244 15.1985 19.8716 15.0271 20.2856C14.8556 20.6997 14.9418 21.1355 15.2578 21.4516C15.4852 21.6789 15.6104 21.9814 15.6104 22.3031C15.6104 22.6248 15.4851 22.9272 15.2577 23.1546L14.137 24.2753C13.9095 24.5027 13.6072 24.628 13.2855 24.628C12.9638 24.628 12.6614 24.5027 12.4339 24.2752C12.118 23.9594 11.6822 23.873 11.2681 24.0445C10.854 24.216 10.6068 24.5852 10.6068 25.032C10.6068 25.696 10.0666 26.2362 9.40267 26.2362H7.81775C7.15378 26.2362 6.6136 25.696 6.6136 25.032C6.6136 24.5843 6.36662 24.2146 5.95291 24.0433C5.53913 23.8719 5.10313 23.9587 4.78643 24.2753C4.55906 24.5027 4.25664 24.628 3.93494 24.628C3.61324 24.628 3.31089 24.5027 3.08339 24.2753L1.96271 23.1545C1.73527 22.9272 1.61004 22.6248 1.61004 22.3031C1.61004 21.9814 1.73534 21.6789 1.96277 21.4515C2.27873 21.1355 2.36493 20.6997 2.19342 20.2856C2.0219 19.8716 1.65276 19.6244 1.2059 19.6244C0.542129 19.6245 0.00195312 19.0842 0.00195312 18.4202V16.8354C0.00195312 16.1714 0.542129 15.6313 1.2061 15.6313C1.65297 15.6313 2.02211 15.3841 2.19362 14.97C2.36514 14.556 2.27894 14.1201 1.96291 13.8041C1.73548 13.5768 1.61024 13.2744 1.61024 12.9527C1.61024 12.631 1.73555 12.3285 1.96298 12.1011L3.08359 10.9804C3.31103 10.753 3.61345 10.6277 3.93515 10.6277C4.25685 10.6277 4.55927 10.753 4.7867 10.9804C5.10266 11.2964 5.53852 11.3826 5.95257 11.2111C6.36662 11.0396 6.61381 10.6705 6.61381 10.2236C6.61381 9.55964 7.15398 9.01946 7.81796 9.01946H9.40287C10.0668 9.01946 10.607 9.55964 10.607 10.2236C10.607 10.6705 10.8542 11.0397 11.2683 11.2111C11.6823 11.3828 12.1182 11.2964 12.4341 10.9804C12.6615 10.753 12.9639 10.6278 13.2856 10.6278C13.6072 10.6278 13.9097 10.753 14.1371 10.9804L15.2579 12.1012C15.4854 12.3286 15.6106 12.631 15.6106 12.9527C15.6106 13.2744 15.4853 13.5768 15.2579 13.8043C14.9419 14.1202 14.8557 14.5561 15.0271 14.9701C15.1987 15.3842 15.5678 15.6314 16.0147 15.6314C16.6786 15.6314 17.2188 16.1716 17.2188 16.8355V16.9442H19.5426V4.51533C19.5426 4.13779 19.8487 3.83174 20.2262 3.83174H24.1675V0.992981C24.1675 0.615432 24.4735 0.309387 24.8511 0.309387H32.1086C32.4861 0.309387 32.7922 0.615432 32.7922 0.992981C32.7922 1.37053 32.4861 1.67657 32.1086 1.67657H25.5347V7.35403H31.425V5.83631C31.425 5.45876 31.731 5.15272 32.1086 5.15272C32.4861 5.15272 32.7922 5.45876 32.7922 5.83631V8.03755C32.7922 8.4151 32.4861 8.72114 32.1086 8.72114H24.851C24.4734 8.72114 24.1674 8.4151 24.1674 8.03755V5.19893H20.9097V16.9442H24.1674V14.1055C24.1674 13.728 24.4734 13.4219 24.851 13.4219H32.1085C32.4861 13.4219 32.7921 13.728 32.7921 14.1055C32.7921 14.4831 32.4861 14.7891 32.1085 14.7891H25.5346V20.4665H31.4249V18.9489C31.4249 18.5713 31.731 18.2653 32.1085 18.2653C32.4861 18.2653 32.7921 18.5713 32.7921 18.9489V21.1501C32.7921 21.5277 32.4861 21.8337 32.1085 21.8337H24.851C24.4734 21.8337 24.1674 21.5277 24.1674 21.1501V18.3114H20.9097V30.0568H24.1674V27.2181C24.1674 26.8405 24.4734 26.5345 24.851 26.5345H32.1085C32.4861 26.5345 32.7921 26.8405 32.7921 27.2181C32.7921 27.5956 32.4861 27.9017 32.1085 27.9017H25.5346V33.5791H31.4249V32.0615C31.4249 31.6839 31.731 31.3779 32.1085 31.3779C32.4861 31.3779 32.792 31.6839 32.792 32.0614ZM15.8516 16.9933C14.9182 16.9345 14.1275 16.371 13.7639 15.4932C13.4003 14.6154 13.561 13.6579 14.1793 12.9562L13.2819 12.0588C12.5802 12.6772 11.6227 12.8378 10.745 12.4743C9.86717 12.1107 9.30375 11.32 9.24489 10.3866H7.97587C7.91701 11.32 7.35353 12.1107 6.47579 12.4743C5.59806 12.8379 4.64041 12.6772 3.93877 12.0588L3.04142 12.9562C3.6598 13.6579 3.82044 14.6154 3.45684 15.4932C3.09316 16.371 2.30252 16.9345 1.36914 16.9933V18.2623C2.30252 18.3212 3.09316 18.8847 3.45677 19.7624C3.82037 20.6402 3.65973 21.5977 3.04135 22.2994L3.9387 23.1969C4.64089 22.5779 5.5986 22.4166 6.47627 22.7801C7.3538 23.1436 7.91708 23.9347 7.97587 24.869H9.24489C9.30375 23.9356 9.86724 23.145 10.745 22.7814C11.6228 22.4177 12.5803 22.5785 13.2819 23.1969L14.1793 22.2994C13.561 21.5978 13.4003 20.6403 13.7639 19.7625C14.1275 18.8847 14.9182 18.3213 15.8516 18.2624V16.9933ZM28.563 3.65325C28.3295 3.35664 27.8997 3.30558 27.6031 3.53916C27.3065 3.77275 27.2554 4.20259 27.4891 4.49913L28.6667 5.99443C28.8012 6.16526 29.0014 6.25508 29.2042 6.25508C29.3435 6.25508 29.4839 6.21263 29.6049 6.12492L34.7196 2.41718C35.0253 2.19556 35.0935 1.76811 34.8719 1.46247C34.6503 1.15677 34.2229 1.08868 33.9172 1.31017L29.3343 4.63243L28.563 3.65325Z" fill="white"/>
</g>
<defs>
<clipPath id="clip0_165_693">
<rect width="35" height="35" fill="white" transform="translate(0.00195312 0.127808)"/>
</clipPath>
</defs>
</svg>
