<svg width="35" height="36" viewBox="0 0 35 36" fill="none" xmlns="http://www.w3.org/2000/svg">
<g clip-path="url(#clip0_165_697)">
<path d="M32.0462 27.0812L29.9587 17.9668C29.8534 17.5073 29.5746 17.1157 29.1735 16.8641C28.7725 16.6125 28.2986 16.532 27.839 16.6372L26.1614 17.0214C25.2104 17.2392 24.6139 18.1901 24.8317 19.141L24.8517 19.2283L24.2937 19.4711C23.8115 19.6807 23.3056 19.6515 22.8308 19.3863C22.3239 19.103 21.8737 18.8389 21.4764 18.6059C19.6477 17.5331 18.544 16.8857 16.9403 17.4853C16.4992 17.6502 16.065 17.9652 15.6217 18.3792H10.182C10.1392 18.179 10.0612 17.9855 9.94892 17.8066C9.69729 17.4055 9.30566 17.1267 8.84615 17.0214L7.16847 16.6372C6.70916 16.5319 6.23509 16.6125 5.83403 16.8641C5.43296 17.1157 5.15412 17.5073 5.04885 17.9668L2.96136 27.0812C2.74357 28.0321 3.34007 28.983 4.29109 29.2009L5.96869 29.5851C6.42445 29.6894 6.90734 29.6065 7.30314 29.3582C7.57596 29.1871 7.79204 28.9511 7.9356 28.6731L13.8403 34.5118C14.2362 34.9077 14.764 35.1257 15.327 35.1257C15.8895 35.1257 16.4174 34.9076 16.8132 34.5117C16.9933 34.3317 17.1365 34.1243 17.2392 33.8988L17.7297 34.3894C18.1256 34.7853 18.6533 35.0033 19.2163 35.0033C19.7789 35.0032 20.3067 34.7851 20.7027 34.3892C20.8907 34.2012 21.0385 33.9835 21.1419 33.7464C21.493 33.9941 21.9119 34.1275 22.3523 34.1275C22.9148 34.1275 23.4427 33.9094 23.8387 33.5135C24.2345 33.1177 24.4525 32.5898 24.4525 32.0273C24.4525 31.9978 24.4519 31.9685 24.4507 31.9392C24.9148 31.8828 25.3433 31.6753 25.6777 31.3409C26.1934 30.8251 26.3844 30.1058 26.2509 29.4391L27.2788 28.9855C27.3981 29.1297 27.5409 29.2557 27.7044 29.3582C28.0993 29.606 28.5844 29.6892 29.0388 29.5852L30.7164 29.201C31.1759 29.0957 31.5675 28.8168 31.8191 28.4158C32.0708 28.0147 32.1514 27.5407 32.0462 27.0812ZM17.419 18.766C18.3711 18.4099 18.9442 18.7054 20.7845 19.7851C21.1875 20.0216 21.6445 20.2896 22.1638 20.5798C23.0132 21.0543 23.9631 21.1057 24.8391 20.7248L25.1622 20.5842L26.7931 27.7054L25.5594 28.2499L20.4678 23.1583C19.4261 22.1166 17.791 21.9693 16.5798 22.8079C14.9069 23.9664 13.7857 24.4304 12.7375 23.5887C13.5228 22.8435 14.2538 21.9778 14.9134 21.1968C15.8198 20.1233 16.757 19.0134 17.419 18.766ZM6.27385 28.2524L4.59624 27.8681C4.38378 27.8195 4.24535 27.5989 4.29403 27.3864C4.29403 27.3864 6.37981 18.2794 6.38152 18.2721C6.42171 18.0965 6.59548 17.9599 6.77472 17.9599C6.80432 17.9599 8.54092 18.3542 8.54092 18.3542C8.64448 18.3779 8.73322 18.4414 8.79071 18.5331C8.8482 18.6249 8.86686 18.7323 8.84314 18.8359L6.75565 27.9502C6.70697 28.1628 6.48638 28.3011 6.27385 28.2524ZM24.7109 30.3741C24.4315 30.6535 23.9496 30.6523 23.6717 30.3742L19.6575 26.3598C19.3905 26.093 18.9578 26.0929 18.6906 26.3598C18.4237 26.6267 18.4237 27.0596 18.6906 27.3266C18.6906 27.3266 22.8514 31.4871 22.8719 31.5077C23.1496 31.7863 23.1554 32.2632 22.8718 32.5467C22.5903 32.8283 22.1137 32.8282 21.8325 32.5469L17.5144 28.2285C17.2474 27.9617 16.8147 27.9616 16.5476 28.2285C16.2806 28.4954 16.2806 28.9282 16.5476 29.1953C16.5476 29.1953 19.7499 32.3978 19.7501 32.398C20.026 32.6739 20.0066 33.1519 19.7359 33.4225C19.455 33.7032 18.9769 33.7032 18.6965 33.4227L15.1901 29.9161C14.9232 29.6493 14.4904 29.6492 14.2233 29.9161C13.9563 30.183 13.9563 30.6158 14.2233 30.8829C14.2233 30.8829 15.8567 32.5163 15.8572 32.5169C16.1346 32.7942 16.1195 33.2718 15.8463 33.5451C15.563 33.8285 15.0863 33.8244 14.8043 33.5425L8.34117 27.1515L10.0372 19.7463H14.3509C14.1931 19.9307 14.0326 20.1206 13.8688 20.3146C13.0546 21.2787 12.2128 22.2757 11.3065 23.0355C11.018 23.2775 10.9795 23.7073 11.2204 23.9968C13.4306 26.6516 15.9856 24.8823 17.3583 23.9319C18.0364 23.4622 18.9177 23.5418 19.501 24.1251L24.7109 29.3349C24.9974 29.6214 24.9974 30.0876 24.7109 30.3741ZM30.6611 27.6892C30.6035 27.7809 30.5148 27.8444 30.4113 27.8681L28.7337 28.2524C28.6298 28.2762 28.5226 28.2574 28.4308 28.2C28.3391 28.1424 28.2756 28.0537 28.2519 27.9502L26.1644 18.8358C26.1407 18.7323 26.1593 18.6247 26.2169 18.5331C26.2744 18.4413 26.3631 18.3778 26.4666 18.3541L28.1443 17.9698C28.2475 17.9461 28.3552 17.9647 28.447 18.0223C28.5388 18.0799 28.6023 18.1686 28.626 18.2721L30.7135 27.3864C30.7372 27.49 30.7185 27.5974 30.6611 27.6892ZM17.5037 11.8241C19.5624 11.8241 21.2374 10.1493 21.2374 8.09048C21.2374 6.0317 19.5624 4.35683 17.5037 4.35683C15.445 4.35683 13.7701 6.0317 13.7701 8.09048C13.7701 10.1493 15.445 11.8241 17.5037 11.8241ZM17.5037 5.72408C18.8086 5.72408 19.8702 6.78571 19.8702 8.09055C19.8702 9.39539 18.8086 10.4569 17.5037 10.4569C16.1988 10.4569 15.1373 9.39539 15.1373 8.09048C15.1373 6.78557 16.1988 5.72408 17.5037 5.72408ZM10.7008 9.98048C11.2747 9.98048 11.5012 10.4193 11.5569 10.5537C11.6125 10.6882 11.7628 11.1585 11.3569 11.5644C11.1374 11.7838 11.0166 12.0756 11.0166 12.386C11.0166 12.6965 11.1375 12.9883 11.3569 13.2076L12.3866 14.2374C12.606 14.4567 12.8979 14.5776 13.2082 14.5776C13.5186 14.5776 13.8105 14.4567 14.0298 14.2373C14.4366 13.8304 14.9065 13.9805 15.041 14.0362C15.1754 14.0918 15.6138 14.3182 15.6138 14.8933C15.6138 15.534 16.135 16.0552 16.7757 16.0552H18.2318C18.8725 16.0552 19.3937 15.534 19.3937 14.8933C19.3937 14.3194 19.8325 14.093 19.967 14.0373C20.1015 13.9816 20.5719 13.8314 20.9777 14.2372C21.197 14.4567 21.4889 14.5776 21.7993 14.5776C22.1096 14.5776 22.4014 14.4567 22.6209 14.2373L23.6506 13.2076C23.8701 12.9882 23.991 12.6963 23.991 12.3859C23.991 12.0755 23.87 11.7837 23.6506 11.5643C23.2447 11.1584 23.3949 10.6881 23.4506 10.5536C23.5062 10.4191 23.7326 9.98034 24.3066 9.98034C24.9472 9.98034 25.4685 9.4591 25.4685 8.81844V7.36232C25.4685 6.72165 24.9472 6.20041 24.3066 6.20041C23.7326 6.20041 23.5062 5.76168 23.4506 5.62715C23.3949 5.49262 23.2447 5.02231 23.6505 4.61653C23.87 4.39709 23.9909 4.10527 23.9909 3.79485C23.9909 3.48449 23.87 3.19267 23.6505 2.97323L22.6208 1.94354C22.4013 1.72417 22.1095 1.60331 21.7992 1.60331C21.4888 1.60331 21.197 1.72417 20.9776 1.94361C20.5717 2.34952 20.1014 2.19927 19.9669 2.14356C19.8325 2.08784 19.3937 1.86151 19.3937 1.28749C19.3937 0.647034 18.8724 0.125793 18.2317 0.125793H16.7757C16.135 0.125793 15.6138 0.647034 15.6138 1.2877C15.6138 1.86171 15.175 2.08805 15.0405 2.14376C14.906 2.19954 14.4357 2.3498 14.0298 1.94388C13.8105 1.72445 13.5186 1.60352 13.2082 1.60352C12.8979 1.60352 12.606 1.72438 12.3865 1.94381L11.3568 2.97351C11.1374 3.19294 11.0165 3.48477 11.0165 3.79512C11.0165 4.10554 11.1374 4.39737 11.3568 4.61673C11.7628 5.02258 11.6125 5.49289 11.5569 5.62736C11.5012 5.76182 11.2747 6.20062 10.7008 6.20062C10.0601 6.20062 9.53897 6.72186 9.53897 7.36252V8.81865C9.53897 9.45931 10.0601 9.98048 10.7008 9.98048ZM10.9062 7.55912C11.7624 7.48646 12.4844 6.96071 12.82 6.15051C13.1556 5.34032 13.0168 4.45807 12.4627 3.8012L13.2142 3.04959C13.871 3.60365 14.7534 3.74241 15.5636 3.40691C16.3738 3.07133 16.8996 2.34925 16.9722 1.49305H18.0351C18.1077 2.34925 18.6335 3.07133 19.4436 3.40691C20.2538 3.74255 21.1361 3.60371 21.7929 3.04966L22.5445 3.80127C21.9906 4.45807 21.8517 5.34045 22.1872 6.15065C22.5228 6.96084 23.2448 7.48659 24.1011 7.55919V8.62204C23.2448 8.69464 22.5228 9.22039 22.1872 10.0306C21.8517 10.8408 21.9904 11.7231 22.5445 12.38L21.7929 13.1316C21.1361 12.5775 20.2537 12.4388 19.4436 12.7743C18.6334 13.1099 18.1077 13.832 18.0351 14.6882H16.9722C16.8996 13.8312 16.374 13.1087 15.564 12.7732C14.7541 12.4376 13.8715 12.5769 13.2142 13.1316L12.4626 12.38C13.0166 11.7232 13.1555 10.8408 12.8199 10.0307C12.4844 9.22053 11.7623 8.69471 10.9061 8.62204V7.55912H10.9062Z" fill="white"/>
</g>
<defs>
<clipPath id="clip0_165_697">
<rect width="35" height="35" fill="white" transform="translate(0.00390625 0.125793)"/>
</clipPath>
</defs>
</svg>
