<svg width="50" height="51" viewBox="0 0 50 51" fill="none" xmlns="http://www.w3.org/2000/svg">
<g clip-path="url(#clip0_194_1070)">
<path d="M45 0.468628H5C3.67432 0.469952 2.40332 0.997161 1.46593 1.93456C0.528533 2.87195 0.00132369 4.14295 0 5.46863L0 45.4686C0.00132369 46.7943 0.528533 48.0653 1.46593 49.0027C2.40332 49.9401 3.67432 50.4673 5 50.4686H45C46.3257 50.4673 47.5967 49.9401 48.5341 49.0027C49.4715 48.0653 49.9987 46.7943 50 45.4686V5.46863C49.9987 4.14295 49.4715 2.87195 48.5341 1.93456C47.5967 0.997161 46.3257 0.469952 45 0.468628ZM48.3333 45.4686C48.3333 46.3527 47.9821 47.2005 47.357 47.8256C46.7319 48.4508 45.8841 48.802 45 48.802H5C4.11594 48.802 3.2681 48.4508 2.64298 47.8256C2.01786 47.2005 1.66667 46.3527 1.66667 45.4686V5.46863C1.66667 4.58457 2.01786 3.73673 2.64298 3.11161C3.2681 2.48648 4.11594 2.13529 5 2.13529H45C45.8841 2.13529 46.7319 2.48648 47.357 3.11161C47.9821 3.73673 48.3333 4.58457 48.3333 5.46863V45.4686Z" fill="white"/>
<path d="M44.9997 7.13528H4.99967C4.55765 7.13528 4.13372 7.31088 3.82116 7.62344C3.5086 7.936 3.33301 8.35992 3.33301 8.80195V45.4686C3.33301 45.9106 3.5086 46.3346 3.82116 46.6471C4.13372 46.9597 4.55765 47.1353 4.99967 47.1353H44.9997C45.4417 47.1353 45.8656 46.9597 46.1782 46.6471C46.4907 46.3346 46.6663 45.9106 46.6663 45.4686V8.80195C46.6663 8.35992 46.4907 7.936 46.1782 7.62344C45.8656 7.31088 45.4417 7.13528 44.9997 7.13528ZM21.3797 24.0928C20.7635 23.4697 20.0293 22.9757 19.22 22.6396C18.4108 22.3035 17.5426 22.1321 16.6663 22.1353V13.802C16.6663 13.5809 16.7541 13.369 16.9104 13.2127C17.0667 13.0564 17.2787 12.9686 17.4997 12.9686H40.833C41.054 12.9686 41.266 13.0564 41.4223 13.2127C41.5785 13.369 41.6663 13.5809 41.6663 13.802V30.4686C41.6663 30.6896 41.5785 30.9016 41.4223 31.0579C41.266 31.2142 41.054 31.302 40.833 31.302H23.333V28.802C23.3364 27.9266 23.1654 27.0594 22.83 26.2509C22.4947 25.4424 22.0016 24.7087 21.3797 24.0928ZM16.6663 23.802C17.9915 23.805 19.2615 24.3328 20.1985 25.2698C21.1355 26.2068 21.6633 27.4768 21.6663 28.802V31.302C21.665 32.6276 21.1378 33.8986 20.2004 34.836C19.263 35.7734 17.992 36.3006 16.6663 36.302C15.3412 36.2989 14.0712 35.7711 13.1342 34.8341C12.1972 33.8971 11.6694 32.6271 11.6663 31.302V28.802C11.6677 27.4763 12.1949 26.2053 13.1323 25.2679C14.0697 24.3305 15.3407 23.8033 16.6663 23.802ZM13.5138 37.1795C14.4594 37.6865 15.5136 37.9571 16.5864 37.9683C17.6592 37.9795 18.7188 37.7308 19.6747 37.2436C20.336 37.3802 20.9542 37.6755 21.4761 38.104C21.998 38.5326 22.4079 39.0815 22.6705 39.7036C23.079 40.6518 23.7513 41.4627 24.6075 42.0397C25.4636 42.6168 26.4675 42.9357 27.4997 42.9586V45.4686H13.333V42.1353C13.333 41.9143 13.2452 41.7023 13.0889 41.546C12.9327 41.3898 12.7207 41.302 12.4997 41.302C12.2787 41.302 12.0667 41.3898 11.9104 41.546C11.7541 41.7023 11.6663 41.9143 11.6663 42.1353V45.4686H8.33301V42.9686C8.33632 41.5362 8.86595 40.155 9.82118 39.0876C10.7764 38.0202 12.0906 37.3411 13.5138 37.1795ZM29.1663 45.4686V42.9686H30.4163C30.7479 42.9686 31.0658 43.1003 31.3002 43.3347C31.5346 43.5692 31.6663 43.8871 31.6663 44.2186C31.6663 44.5501 31.5346 44.8681 31.3002 45.1025C31.0658 45.3369 30.7479 45.4686 30.4163 45.4686H29.1663ZM44.9997 45.4686H33.0405C33.2101 45.1204 33.3079 44.7416 33.3282 44.3548C33.3485 43.968 33.2909 43.5811 33.1587 43.217C33.0266 42.8529 32.8226 42.519 32.559 42.2353C32.2953 41.9516 31.9773 41.7237 31.6238 41.5653L33.2905 36.5653C33.3251 36.4613 33.3389 36.3516 33.331 36.2423C33.3232 36.133 33.2939 36.0263 33.2448 35.9284C33.1958 35.8304 33.1279 35.7431 33.0451 35.6713C32.9623 35.5996 32.8661 35.5449 32.7622 35.5103C32.6582 35.4757 32.5485 35.4619 32.4392 35.4698C32.3299 35.4776 32.2232 35.5069 32.1253 35.556C32.0273 35.605 31.9399 35.6729 31.8682 35.7557C31.7965 35.8385 31.7418 35.9347 31.7072 36.0386L29.9522 41.302H27.633C26.9025 41.3004 26.1884 41.0856 25.5783 40.6838C24.9682 40.282 24.4888 39.7108 24.1988 39.0403C23.6411 37.7273 22.6216 36.6641 21.333 36.052C22.1952 35.2046 22.8108 34.1388 23.1138 32.9686H40.833C41.4961 32.9686 42.1319 32.7052 42.6008 32.2364C43.0696 31.7675 43.333 31.1317 43.333 30.4686V13.802C43.333 13.1389 43.0696 12.503 42.6008 12.0342C42.1319 11.5653 41.4961 11.302 40.833 11.302H17.4997C16.8366 11.302 16.2007 11.5653 15.7319 12.0342C15.2631 12.503 14.9997 13.1389 14.9997 13.802V22.3545C13.5704 22.7247 12.3043 23.5584 11.3996 24.7251C10.4948 25.8918 10.0025 27.3256 9.99967 28.802V31.302C9.99553 32.9963 10.644 34.6272 11.8105 35.8561C10.3162 36.3536 9.01581 37.3077 8.09284 38.5838C7.16986 39.86 6.6709 41.3937 6.66634 42.9686V45.4686H4.99967V8.80195H44.9997V45.4686Z" fill="white"/>
<path d="M5.00033 5.46864H5.83366C6.05467 5.46864 6.26663 5.38084 6.42291 5.22456C6.5792 5.06828 6.66699 4.85632 6.66699 4.6353C6.66699 4.41429 6.5792 4.20233 6.42291 4.04605C6.26663 3.88977 6.05467 3.80197 5.83366 3.80197H5.00033C4.77931 3.80197 4.56735 3.88977 4.41107 4.04605C4.25479 4.20233 4.16699 4.41429 4.16699 4.6353C4.16699 4.85632 4.25479 5.06828 4.41107 5.22456C4.56735 5.38084 4.77931 5.46864 5.00033 5.46864Z" fill="white"/>
<path d="M9.16634 5.46864H9.99967C10.2207 5.46864 10.4326 5.38084 10.5889 5.22456C10.7452 5.06828 10.833 4.85632 10.833 4.6353C10.833 4.41429 10.7452 4.20233 10.5889 4.04605C10.4326 3.88977 10.2207 3.80197 9.99967 3.80197H9.16634C8.94533 3.80197 8.73337 3.88977 8.57709 4.04605C8.42081 4.20233 8.33301 4.41429 8.33301 4.6353C8.33301 4.85632 8.42081 5.06828 8.57709 5.22456C8.73337 5.38084 8.94533 5.46864 9.16634 5.46864Z" fill="white"/>
<path d="M13.3333 5.46864H14.1667C14.3877 5.46864 14.5996 5.38084 14.7559 5.22456C14.9122 5.06828 15 4.85632 15 4.6353C15 4.41429 14.9122 4.20233 14.7559 4.04605C14.5996 3.88977 14.3877 3.80197 14.1667 3.80197H13.3333C13.1123 3.80197 12.9004 3.88977 12.7441 4.04605C12.5878 4.20233 12.5 4.41429 12.5 4.6353C12.5 4.85632 12.5878 5.06828 12.7441 5.22456C12.9004 5.38084 13.1123 5.46864 13.3333 5.46864Z" fill="white"/>
<path d="M35.8333 5.46864H45C45.221 5.46864 45.433 5.38084 45.5893 5.22456C45.7455 5.06828 45.8333 4.85632 45.8333 4.6353C45.8333 4.41429 45.7455 4.20233 45.5893 4.04605C45.433 3.88977 45.221 3.80197 45 3.80197H35.8333C35.6123 3.80197 35.4004 3.88977 35.2441 4.04605C35.0878 4.20233 35 4.41429 35 4.6353C35 4.85632 35.0878 5.06828 35.2441 5.22456C35.4004 5.38084 35.6123 5.46864 35.8333 5.46864Z" fill="white"/>
<path d="M39.167 17.1353C39.167 16.9143 39.0792 16.7023 38.9229 16.546C38.7666 16.3898 38.5547 16.302 38.3337 16.302H20.0003C19.7793 16.302 19.5673 16.3898 19.4111 16.546C19.2548 16.7023 19.167 16.9143 19.167 17.1353C19.167 17.3563 19.2548 17.5683 19.4111 17.7246C19.5673 17.8808 19.7793 17.9686 20.0003 17.9686H38.3337C38.5547 17.9686 38.7666 17.8808 38.9229 17.7246C39.0792 17.5683 39.167 17.3563 39.167 17.1353Z" fill="white"/>
<path d="M38.333 21.302H24.1663C23.9453 21.302 23.7334 21.3898 23.5771 21.546C23.4208 21.7023 23.333 21.9143 23.333 22.1353C23.333 22.3563 23.4208 22.5683 23.5771 22.7246C23.7334 22.8808 23.9453 22.9686 24.1663 22.9686H38.333C38.554 22.9686 38.766 22.8808 38.9223 22.7246C39.0785 22.5683 39.1663 22.3563 39.1663 22.1353C39.1663 21.9143 39.0785 21.7023 38.9223 21.546C38.766 21.3898 38.554 21.302 38.333 21.302Z" fill="white"/>
<path d="M38.333 26.302H26.6663C26.4453 26.302 26.2334 26.3898 26.0771 26.546C25.9208 26.7023 25.833 26.9143 25.833 27.1353C25.833 27.3563 25.9208 27.5683 26.0771 27.7246C26.2334 27.8808 26.4453 27.9686 26.6663 27.9686H38.333C38.554 27.9686 38.766 27.8808 38.9223 27.7246C39.0785 27.5683 39.1663 27.3563 39.1663 27.1353C39.1663 26.9143 39.0785 26.7023 38.9223 26.546C38.766 26.3898 38.554 26.302 38.333 26.302Z" fill="white"/>
</g>
<defs>
<clipPath id="clip0_194_1070">
<rect width="50" height="50" fill="white" transform="translate(0 0.468628)"/>
</clipPath>
</defs>
</svg>
