<svg width="50" height="51" viewBox="0 0 50 51" fill="none" xmlns="http://www.w3.org/2000/svg">
<g clip-path="url(#clip0_194_630)">
<path d="M45.1631 49.0333H4.88533C2.50755 49.0333 0.574219 47.0999 0.574219 44.7222V5.79994C0.574219 3.42216 2.50755 1.48883 4.88533 1.48883H45.152C47.5298 1.48883 49.4631 3.42216 49.4631 5.79994V44.7222C49.4742 47.0999 47.5409 49.0333 45.1631 49.0333ZM4.88533 2.59994C3.11866 2.59994 1.68533 4.03327 1.68533 5.79994V44.7222C1.68533 46.4888 3.11866 47.9222 4.88533 47.9222H45.152C46.9187 47.9222 48.352 46.4888 48.352 44.7222V5.79994C48.352 4.03327 46.9187 2.59994 45.152 2.59994H4.88533Z" fill="#0E7AEE"/>
<path d="M48.9187 12.0888H1.12977C0.818663 12.0888 0.574219 11.8444 0.574219 11.5333C0.574219 11.2222 0.818663 10.9777 1.12977 10.9777H48.9187C49.2298 10.9777 49.4742 11.2222 49.4742 11.5333C49.4742 11.8444 49.2298 12.0888 48.9187 12.0888Z" fill="#0E7AEE"/>
<path d="M9.77398 8.83327H6.60731C6.2962 8.83327 6.05176 8.58883 6.05176 8.27772V5.29994C6.05176 4.98883 6.2962 4.74438 6.60731 4.74438H9.77398C10.0851 4.74438 10.3295 4.98883 10.3295 5.29994V8.27772C10.3295 8.57772 10.074 8.83327 9.77398 8.83327ZM7.16287 7.72216H9.21842V5.8555H7.16287V7.72216Z" fill="#0E7AEE"/>
<path d="M15.9078 8.83327H12.7411C12.43 8.83327 12.1855 8.58883 12.1855 8.27772V5.29994C12.1855 4.98883 12.43 4.74438 12.7411 4.74438H15.9078C16.2189 4.74438 16.4633 4.98883 16.4633 5.29994V8.27772C16.4633 8.57772 16.2189 8.83327 15.9078 8.83327ZM13.2967 7.72216H15.3522V5.8555H13.2967V7.72216Z" fill="#0E7AEE"/>
<path d="M22.0523 8.83327H18.8856C18.5745 8.83327 18.3301 8.58883 18.3301 8.27772V5.29994C18.3301 4.98883 18.5745 4.74438 18.8856 4.74438H22.0523C22.3634 4.74438 22.6079 4.98883 22.6079 5.29994V8.27772C22.6079 8.57772 22.3523 8.83327 22.0523 8.83327ZM19.4412 7.72216H21.4967V5.8555H19.4412V7.72216Z" fill="#0E7AEE"/>
<path d="M25.0297 25.1222C24.9519 25.1222 24.863 25.0999 24.7853 25.0666L15.1519 20.3888C14.963 20.2999 14.8408 20.0999 14.8408 19.8888C14.8408 19.6777 14.963 19.4777 15.1519 19.3888L24.7853 14.711C24.9408 14.6333 25.1186 14.6333 25.2742 14.711L34.9075 19.3888C35.0964 19.4777 35.2186 19.6777 35.2186 19.8888C35.2186 20.0999 35.0964 20.2999 34.9075 20.3888L25.263 25.0666C25.1964 25.0999 25.1075 25.1222 25.0297 25.1222ZM16.663 19.8777L25.0297 23.9444L33.3964 19.8777L25.0297 15.811L16.663 19.8777Z" fill="#0E7AEE"/>
<path d="M25.0293 30.3777C24.9515 30.3777 24.8626 30.3555 24.7849 30.3222L17.8404 27.0111C17.6515 26.9222 17.5293 26.7222 17.5293 26.5111V21.1889C17.5293 20.8777 17.7737 20.6333 18.0849 20.6333C18.396 20.6333 18.6404 20.8777 18.6404 21.1889V26.1666L25.0293 29.2111L31.4182 26.1666V21.1889C31.4182 20.8777 31.6626 20.6333 31.9737 20.6333C32.2849 20.6333 32.5293 20.8777 32.5293 21.1889V26.5111C32.5293 26.7222 32.4071 26.9222 32.2182 27.0111L25.2737 30.3222C25.1849 30.3666 25.1071 30.3777 25.0293 30.3777Z" fill="#0E7AEE"/>
<path d="M20.0741 28.0221C19.763 28.0221 19.5186 27.7777 19.5186 27.4666V22.1555C19.5186 21.8444 19.763 21.5999 20.0741 21.5999C20.3852 21.5999 20.6297 21.8444 20.6297 22.1555V27.4666C20.6297 27.7666 20.3741 28.0221 20.0741 28.0221Z" fill="#0E7AEE"/>
<path d="M29.9852 28.0221C29.6741 28.0221 29.4297 27.7777 29.4297 27.4666V22.1555C29.4297 21.8444 29.6741 21.5999 29.9852 21.5999C30.2964 21.5999 30.5408 21.8444 30.5408 22.1555V27.4666C30.5408 27.7666 30.2852 28.0221 29.9852 28.0221Z" fill="#0E7AEE"/>
<path d="M25.0299 27.8C24.9521 27.8 24.8632 27.7777 24.7854 27.7444L21.7632 26.3C21.4854 26.1666 21.3743 25.8333 21.4966 25.5555C21.6299 25.2777 21.9632 25.1555 22.241 25.2888L25.0299 26.6222L27.8188 25.2888C28.0966 25.1555 28.4299 25.2777 28.5632 25.5555C28.6966 25.8333 28.5743 26.1666 28.2966 26.3L25.2743 27.7444C25.1854 27.7777 25.1077 27.8 25.0299 27.8Z" fill="#0E7AEE"/>
<path d="M16.8745 45.3666H5.56337C5.25226 45.3666 5.00781 45.1222 5.00781 44.8111V40.8444C5.00781 38.7889 6.67448 37.1222 8.73003 37.1222H9.68559C9.87448 37.1222 10.0634 37.2222 10.1634 37.3889L11.23 39.1444L12.2967 37.3889C12.3967 37.2222 12.5745 37.1222 12.7745 37.1222H13.73C15.7856 37.1222 17.4523 38.7889 17.4523 40.8444V44.8222C17.43 45.1222 17.1856 45.3666 16.8745 45.3666ZM6.11892 44.2555H16.3189V40.8444C16.3189 39.4111 15.1523 38.2333 13.7078 38.2333H13.0634L11.6856 40.5C11.5856 40.6666 11.4078 40.7666 11.2078 40.7666C11.0078 40.7666 10.83 40.6666 10.73 40.5L9.35226 38.2333H8.70781C7.27448 38.2333 6.0967 39.4 6.0967 40.8444L6.11892 44.2555Z" fill="#0E7AEE"/>
<path d="M9.68544 38.2333C9.37433 38.2333 9.12988 37.9888 9.12988 37.6777V36.2888C9.12988 35.9777 9.37433 35.7333 9.68544 35.7333C9.99655 35.7333 10.241 35.9777 10.241 36.2888V37.6777C10.241 37.9888 9.99655 38.2333 9.68544 38.2333Z" fill="#0E7AEE"/>
<path d="M12.7636 38.2333C12.4525 38.2333 12.208 37.9888 12.208 37.6777V36.3555C12.208 36.0444 12.4525 35.7999 12.7636 35.7999C13.0747 35.7999 13.3191 36.0444 13.3191 36.3555V37.6777C13.3191 37.9888 13.0636 38.2333 12.7636 38.2333Z" fill="#0E7AEE"/>
<path d="M11.2628 37.4444C9.72942 37.4444 8.06276 36.2444 8.0072 33.611C7.99609 33.2999 8.24053 33.0555 8.55164 33.0444C8.86276 33.0333 9.1072 33.2777 9.11831 33.5888C9.16276 35.4777 10.2516 36.3333 11.2628 36.3333C12.2628 36.3333 13.3628 35.4777 13.4072 33.5999C13.4183 33.2888 13.6739 33.0555 13.9739 33.0555C14.285 33.0666 14.5183 33.3221 14.5183 33.6221C14.4516 36.2444 12.785 37.4444 11.2628 37.4444Z" fill="#0E7AEE"/>
<path d="M13.9628 34.1777C13.9183 34.1777 13.8739 34.1777 13.8294 34.1666C13.585 34.1111 13.4072 33.8888 13.4072 33.6444C13.3739 32.6888 13.2072 32.1555 13.085 31.8888C11.7406 32.5222 10.6406 32.1111 9.95167 31.8444C9.84056 31.8 9.71834 31.7555 9.60723 31.7222C9.52945 32.8555 9.07389 33.8 9.05167 33.8444C8.96278 34.0222 8.79612 34.1333 8.59612 34.1555C8.40723 34.1777 8.20723 34.0888 8.09612 33.9333C7.21834 32.7333 7.16278 31.3333 7.91834 30.1111C8.80723 28.6777 10.6739 27.7555 12.1739 28C13.2406 28.1777 13.9961 28.8888 14.3072 30C15.5072 31.0444 14.9628 32.9222 14.4406 33.9C14.3517 34.0666 14.1628 34.1777 13.9628 34.1777ZM9.41834 30.5777C9.74056 30.5777 10.085 30.7 10.3406 30.8C11.0517 31.0666 11.8517 31.3666 12.9183 30.7C13.0628 30.6111 13.2294 30.5888 13.385 30.6444C13.3406 30.5777 13.2961 30.5111 13.285 30.4222C13.1072 29.6444 12.6739 29.1888 11.9961 29.0777C10.9294 28.9 9.52945 29.6111 8.87389 30.6777C8.85167 30.7111 8.84056 30.7444 8.81834 30.7777C9.00723 30.6222 9.20723 30.5777 9.41834 30.5777Z" fill="#0E7AEE"/>
<path d="M14.619 45.3666C14.3079 45.3666 14.0635 45.1222 14.0635 44.8111V40.7999C14.0635 40.4888 14.3079 40.2444 14.619 40.2444C14.9301 40.2444 15.1746 40.4888 15.1746 40.7999V44.8111C15.1746 45.1222 14.9301 45.3666 14.619 45.3666Z" fill="#0E7AEE"/>
<path d="M7.82997 45.3666C7.51886 45.3666 7.27441 45.1222 7.27441 44.8111V40.7999C7.27441 40.4888 7.51886 40.2444 7.82997 40.2444C8.14108 40.2444 8.38553 40.4888 8.38553 40.7999V44.8111C8.38553 45.1222 8.12997 45.3666 7.82997 45.3666Z" fill="#0E7AEE"/>
<path d="M44.4858 45.3666H33.1747C32.8636 45.3666 32.6191 45.1222 32.6191 44.8111V40.8444C32.6191 38.7889 34.2858 37.1222 36.3414 37.1222H37.2969C37.4858 37.1222 37.6747 37.2222 37.7747 37.3889L38.8414 39.1444L39.908 37.3889C40.008 37.2222 40.1858 37.1222 40.3858 37.1222H41.3414C43.3969 37.1222 45.0636 38.7889 45.0636 40.8444V44.8222C45.0414 45.1222 44.7858 45.3666 44.4858 45.3666ZM33.7303 44.2555H43.9303V40.8444C43.9303 39.4111 42.7636 38.2333 41.3191 38.2333H40.6747L39.2969 40.5C39.1969 40.6666 39.0191 40.7666 38.8191 40.7666C38.6191 40.7666 38.4414 40.6666 38.3414 40.5L36.9636 38.2333H36.3191C34.8858 38.2333 33.708 39.4 33.708 40.8444L33.7303 44.2555Z" fill="#0E7AEE"/>
<path d="M37.285 38.2333C36.9739 38.2333 36.7295 37.9888 36.7295 37.6777V36.2888C36.7295 35.9777 36.9739 35.7333 37.285 35.7333C37.5962 35.7333 37.8406 35.9777 37.8406 36.2888V37.6777C37.8406 37.9888 37.5962 38.2333 37.285 38.2333Z" fill="#0E7AEE"/>
<path d="M40.3632 38.2333C40.0521 38.2333 39.8076 37.9888 39.8076 37.6777V36.3555C39.8076 36.0444 40.0521 35.7999 40.3632 35.7999C40.6743 35.7999 40.9187 36.0444 40.9187 36.3555V37.6777C40.9187 37.9888 40.6743 38.2333 40.3632 38.2333Z" fill="#0E7AEE"/>
<path d="M38.8633 37.4444C37.33 37.4444 35.6633 36.2444 35.6078 33.611C35.5967 33.2999 35.8411 33.0555 36.1522 33.0444H36.1633C36.4633 33.0444 36.7078 33.2888 36.7189 33.5888C36.7633 35.4777 37.8522 36.3333 38.8633 36.3333C39.8633 36.3333 40.9633 35.4777 41.0078 33.5999C41.0189 33.2888 41.2633 33.0555 41.5745 33.0555C41.8856 33.0666 42.1189 33.3222 42.1189 33.6222C42.0633 36.2444 40.3967 37.4444 38.8633 37.4444Z" fill="#0E7AEE"/>
<path d="M41.5634 34.1777C41.5189 34.1777 41.4745 34.1777 41.43 34.1666C41.1856 34.1111 41.0078 33.8888 41.0078 33.6444C40.9745 32.6888 40.8078 32.1666 40.6745 31.8888C39.3411 32.5222 38.2411 32.1 37.5523 31.8444C37.4411 31.8 37.3189 31.7555 37.2078 31.7222C37.13 32.8555 36.6745 33.8 36.6523 33.8444C36.5634 34.0222 36.3967 34.1333 36.1967 34.1555C36.0078 34.1777 35.8078 34.0888 35.6967 33.9333C34.8189 32.7333 34.7634 31.3333 35.5189 30.1111C36.4078 28.6777 38.2745 27.7555 39.7745 28C40.8411 28.1777 41.5967 28.8888 41.9078 30C43.1078 31.0444 42.5634 32.9222 42.0411 33.9C41.9523 34.0666 41.7634 34.1777 41.5634 34.1777ZM37.0189 30.5777C37.3411 30.5777 37.6856 30.7 37.9411 30.8C38.6523 31.0666 39.4523 31.3666 40.5189 30.7C40.6634 30.6111 40.83 30.5888 40.9856 30.6444C40.9411 30.5777 40.8967 30.5111 40.8856 30.4222C40.7078 29.6444 40.2745 29.1888 39.5967 29.0777C38.53 28.9 37.13 29.6111 36.4745 30.6777C36.4523 30.7111 36.4411 30.7444 36.4189 30.7777C36.6078 30.6222 36.8078 30.5777 37.0189 30.5777Z" fill="#0E7AEE"/>
<path d="M42.2186 45.3666C41.9075 45.3666 41.6631 45.1222 41.6631 44.8111V40.7999C41.6631 40.4888 41.9075 40.2444 42.2186 40.2444C42.5298 40.2444 42.7742 40.4888 42.7742 40.7999V44.8111C42.7742 45.1222 42.5298 45.3666 42.2186 45.3666Z" fill="#0E7AEE"/>
<path d="M35.4296 45.3666C35.1185 45.3666 34.874 45.1222 34.874 44.8111V40.7999C34.874 40.4888 35.1185 40.2444 35.4296 40.2444C35.7407 40.2444 35.9851 40.4888 35.9851 40.7999V44.8111C35.9851 45.1222 35.7407 45.3666 35.4296 45.3666Z" fill="#0E7AEE"/>
<path d="M25.0294 45.3666C21.296 45.3666 18.2627 42.3333 18.2627 38.5999C18.2627 34.8666 21.296 31.8333 25.0294 31.8333C28.7627 31.8333 31.796 34.8666 31.796 38.5999C31.796 42.3333 28.7516 45.3666 25.0294 45.3666ZM25.0294 32.9555C21.9183 32.9555 19.3738 35.4888 19.3738 38.611C19.3738 41.7333 21.9071 44.2666 25.0294 44.2666C28.1516 44.2666 30.6849 41.7333 30.6849 38.611C30.6849 35.4888 28.1405 32.9555 25.0294 32.9555Z" fill="#0E7AEE"/>
<path d="M25.0302 42.3333C24.7191 42.3333 24.4746 42.0889 24.4746 41.7777V35.4444C24.4746 35.1333 24.7191 34.8889 25.0302 34.8889C25.3413 34.8889 25.5857 35.1333 25.5857 35.4444V41.7777C25.5857 42.0777 25.3302 42.3333 25.0302 42.3333Z" fill="#0E7AEE"/>
<path d="M28.1965 39.1666H21.8632C21.5521 39.1666 21.3076 38.9221 21.3076 38.611C21.3076 38.2999 21.5521 38.0555 21.8632 38.0555H28.1965C28.5076 38.0555 28.7521 38.2999 28.7521 38.611C28.7521 38.9221 28.4965 39.1666 28.1965 39.1666Z" fill="#0E7AEE"/>
</g>
<defs>
<clipPath id="clip0_194_630">
<rect width="50" height="50" fill="white" transform="translate(-0.00390625 0.177734)"/>
</clipPath>
</defs>
</svg>
