<svg width="35" height="36" viewBox="0 0 35 36" fill="none" xmlns="http://www.w3.org/2000/svg">
<g clip-path="url(#clip0_194_630)">
<path d="M31.6126 34.3766H3.41817C1.75372 34.3766 0.400391 33.0233 0.400391 31.3589V4.1133C0.400391 2.44885 1.75372 1.09552 3.41817 1.09552H31.6048C33.2693 1.09552 34.6226 2.44885 34.6226 4.1133V31.3589C34.6304 33.0233 33.2771 34.3766 31.6126 34.3766ZM3.41817 1.8733C2.1815 1.8733 1.17817 2.87663 1.17817 4.1133V31.3589C1.17817 32.5955 2.1815 33.5989 3.41817 33.5989H31.6048C32.8415 33.5989 33.8448 32.5955 33.8448 31.3589V4.1133C33.8448 2.87663 32.8415 1.8733 31.6048 1.8733H3.41817Z" fill="white"/>
<path d="M34.2415 8.51551H0.78928C0.571502 8.51551 0.400391 8.3444 0.400391 8.12662C0.400391 7.90884 0.571502 7.73773 0.78928 7.73773H34.2415C34.4593 7.73773 34.6304 7.90884 34.6304 8.12662C34.6304 8.3444 34.4593 8.51551 34.2415 8.51551Z" fill="white"/>
<path d="M6.83993 6.23661H4.62326C4.40549 6.23661 4.23438 6.0655 4.23438 5.84772V3.76328C4.23438 3.5455 4.40549 3.37439 4.62326 3.37439H6.83993C7.05771 3.37439 7.22882 3.5455 7.22882 3.76328V5.84772C7.22882 6.05772 7.04993 6.23661 6.83993 6.23661ZM5.01215 5.45883H6.45104V4.15217H5.01215V5.45883Z" fill="white"/>
<path d="M11.1339 6.23661H8.91721C8.69943 6.23661 8.52832 6.0655 8.52832 5.84772V3.76328C8.52832 3.5455 8.69943 3.37439 8.91721 3.37439H11.1339C11.3517 3.37439 11.5228 3.5455 11.5228 3.76328V5.84772C11.5228 6.05772 11.3517 6.23661 11.1339 6.23661ZM9.3061 5.45883H10.745V4.15217H9.3061V5.45883Z" fill="white"/>
<path d="M15.4347 6.23661H13.218C13.0002 6.23661 12.8291 6.0655 12.8291 5.84772V3.76328C12.8291 3.5455 13.0002 3.37439 13.218 3.37439H15.4347C15.6524 3.37439 15.8235 3.5455 15.8235 3.76328V5.84772C15.8235 6.05772 15.6447 6.23661 15.4347 6.23661ZM13.6069 5.45883H15.0458V4.15217H13.6069V5.45883Z" fill="white"/>
<path d="M17.5189 17.6389C17.4645 17.6389 17.4023 17.6233 17.3478 17.6L10.6045 14.3255C10.4723 14.2633 10.3867 14.1233 10.3867 13.9755C10.3867 13.8277 10.4723 13.6877 10.6045 13.6255L17.3478 10.3511C17.4567 10.2966 17.5812 10.2966 17.6901 10.3511L24.4334 13.6255C24.5656 13.6877 24.6512 13.8277 24.6512 13.9755C24.6512 14.1233 24.5656 14.2633 24.4334 14.3255L17.6823 17.6C17.6356 17.6233 17.5734 17.6389 17.5189 17.6389ZM11.6623 13.9677L17.5189 16.8144L23.3756 13.9677L17.5189 11.1211L11.6623 13.9677Z" fill="white"/>
<path d="M17.5186 21.3178C17.4641 21.3178 17.4019 21.3022 17.3474 21.2789L12.4863 18.9611C12.3541 18.8989 12.2686 18.7589 12.2686 18.6111V14.8855C12.2686 14.6678 12.4397 14.4966 12.6574 14.4966C12.8752 14.4966 13.0463 14.6678 13.0463 14.8855V18.37L17.5186 20.5011L21.9908 18.37V14.8855C21.9908 14.6678 22.1619 14.4966 22.3797 14.4966C22.5974 14.4966 22.7686 14.6678 22.7686 14.8855V18.6111C22.7686 18.7589 22.683 18.8989 22.5508 18.9611L17.6897 21.2789C17.6274 21.31 17.573 21.3178 17.5186 21.3178Z" fill="white"/>
<path d="M14.05 19.6688C13.8322 19.6688 13.6611 19.4977 13.6611 19.2799V15.5622C13.6611 15.3444 13.8322 15.1733 14.05 15.1733C14.2678 15.1733 14.4389 15.3444 14.4389 15.5622V19.2799C14.4389 19.4899 14.26 19.6688 14.05 19.6688Z" fill="white"/>
<path d="M20.9885 19.6688C20.7707 19.6688 20.5996 19.4977 20.5996 19.2799V15.5622C20.5996 15.3444 20.7707 15.1733 20.9885 15.1733C21.2063 15.1733 21.3774 15.3444 21.3774 15.5622V19.2799C21.3774 19.4899 21.1985 19.6688 20.9885 19.6688Z" fill="white"/>
<path d="M17.5196 19.5133C17.4651 19.5133 17.4029 19.4977 17.3484 19.4744L15.2329 18.4633C15.0384 18.37 14.9607 18.1366 15.0462 17.9422C15.1396 17.7477 15.3729 17.6622 15.5673 17.7555L17.5196 18.6889L19.4718 17.7555C19.6662 17.6622 19.8996 17.7477 19.9929 17.9422C20.0862 18.1366 20.0007 18.37 19.8062 18.4633L17.6907 19.4744C17.6284 19.4977 17.574 19.5133 17.5196 19.5133Z" fill="white"/>
<path d="M11.8106 31.81H3.8928C3.67502 31.81 3.50391 31.6389 3.50391 31.4211V28.6444C3.50391 27.2055 4.67057 26.0389 6.10946 26.0389H6.77835C6.91057 26.0389 7.0428 26.1089 7.1128 26.2255L7.85946 27.4544L8.60613 26.2255C8.67613 26.1089 8.80057 26.0389 8.94057 26.0389H9.60946C11.0484 26.0389 12.215 27.2055 12.215 28.6444V31.4289C12.1995 31.6389 12.0284 31.81 11.8106 31.81ZM4.28168 31.0322H11.4217V28.6444C11.4217 27.6411 10.605 26.8167 9.59391 26.8167H9.1428L8.17835 28.4033C8.10835 28.52 7.98391 28.59 7.84391 28.59C7.70391 28.59 7.57946 28.52 7.50946 28.4033L6.54502 26.8167H6.09391C5.09057 26.8167 4.26613 27.6333 4.26613 28.6444L4.28168 31.0322Z" fill="white"/>
<path d="M6.77854 26.8167C6.56076 26.8167 6.38965 26.6455 6.38965 26.4278V25.4555C6.38965 25.2378 6.56076 25.0667 6.77854 25.0667C6.99632 25.0667 7.16743 25.2378 7.16743 25.4555V26.4278C7.16743 26.6455 6.99632 26.8167 6.77854 26.8167Z" fill="white"/>
<path d="M8.93283 26.8166C8.71506 26.8166 8.54395 26.6455 8.54395 26.4277V25.5022C8.54395 25.2844 8.71506 25.1133 8.93283 25.1133C9.15061 25.1133 9.32172 25.2844 9.32172 25.5022V26.4277C9.32172 26.6455 9.14283 26.8166 8.93283 26.8166Z" fill="white"/>
<path d="M7.88266 26.2644C6.80933 26.2644 5.64266 25.4244 5.60377 23.5811C5.59599 23.3633 5.7671 23.1922 5.98488 23.1844C6.20266 23.1766 6.37377 23.3477 6.38155 23.5655C6.41266 24.8877 7.17488 25.4866 7.88266 25.4866C8.58266 25.4866 9.35266 24.8877 9.38377 23.5733C9.39155 23.3555 9.57044 23.1922 9.78044 23.1922C9.99822 23.2 10.1615 23.3788 10.1615 23.5888C10.1149 25.4244 8.94822 26.2644 7.88266 26.2644Z" fill="white"/>
<path d="M9.77268 23.9777C9.74157 23.9777 9.71046 23.9777 9.67934 23.97C9.50823 23.9311 9.38379 23.7755 9.38379 23.6044C9.36046 22.9355 9.24379 22.5622 9.15823 22.3755C8.21712 22.8189 7.44712 22.5311 6.9649 22.3444C6.88712 22.3133 6.80157 22.2822 6.72379 22.2589C6.66934 23.0522 6.35046 23.7133 6.3349 23.7444C6.27268 23.8689 6.15601 23.9466 6.01601 23.9622C5.88379 23.9777 5.74379 23.9155 5.66601 23.8066C5.05157 22.9666 5.01268 21.9866 5.54157 21.1311C6.16379 20.1277 7.47046 19.4822 8.52046 19.6533C9.26712 19.7777 9.79601 20.2755 10.0138 21.0533C10.8538 21.7844 10.4727 23.0989 10.1071 23.7833C10.0449 23.9 9.91268 23.9777 9.77268 23.9777ZM6.59157 21.4577C6.81712 21.4577 7.05823 21.5433 7.23712 21.6133C7.7349 21.8 8.2949 22.01 9.04157 21.5433C9.14268 21.4811 9.25934 21.4655 9.36823 21.5044C9.33712 21.4577 9.30601 21.4111 9.29823 21.3489C9.17379 20.8044 8.87046 20.4855 8.39601 20.4077C7.64934 20.2833 6.66934 20.7811 6.21046 21.5277C6.1949 21.5511 6.18712 21.5744 6.17157 21.5977C6.30379 21.4889 6.44379 21.4577 6.59157 21.4577Z" fill="white"/>
<path d="M10.2317 31.81C10.0139 31.81 9.84277 31.6389 9.84277 31.4211V28.6133C9.84277 28.3955 10.0139 28.2244 10.2317 28.2244C10.4494 28.2244 10.6206 28.3955 10.6206 28.6133V31.4211C10.6206 31.6389 10.4494 31.81 10.2317 31.81Z" fill="white"/>
<path d="M5.47971 31.81C5.26193 31.81 5.09082 31.6389 5.09082 31.4211V28.6133C5.09082 28.3955 5.26193 28.2244 5.47971 28.2244C5.69749 28.2244 5.8686 28.3955 5.8686 28.6133V31.4211C5.8686 31.6389 5.68971 31.81 5.47971 31.81Z" fill="white"/>
<path d="M31.1387 31.81H23.2209C23.0031 31.81 22.832 31.6389 22.832 31.4211V28.6444C22.832 27.2055 23.9987 26.0389 25.4376 26.0389H26.1065C26.2387 26.0389 26.3709 26.1089 26.4409 26.2255L27.1876 27.4544L27.9343 26.2255C28.0043 26.1089 28.1287 26.0389 28.2687 26.0389H28.9376C30.3765 26.0389 31.5431 27.2055 31.5431 28.6444V31.4289C31.5276 31.6389 31.3487 31.81 31.1387 31.81ZM23.6098 31.0322H30.7498V28.6444C30.7498 27.6411 29.9331 26.8167 28.922 26.8167H28.4709L27.5065 28.4033C27.4365 28.52 27.312 28.59 27.172 28.59C27.032 28.59 26.9076 28.52 26.8376 28.4033L25.8731 26.8167H25.422C24.4187 26.8167 23.5943 27.6333 23.5943 28.6444L23.6098 31.0322Z" fill="white"/>
<path d="M26.0979 26.8167C25.8801 26.8167 25.709 26.6455 25.709 26.4278V25.4555C25.709 25.2378 25.8801 25.0667 26.0979 25.0667C26.3157 25.0667 26.4868 25.2378 26.4868 25.4555V26.4278C26.4868 26.6455 26.3157 26.8167 26.0979 26.8167Z" fill="white"/>
<path d="M28.2522 26.8166C28.0344 26.8166 27.8633 26.6455 27.8633 26.4277V25.5022C27.8633 25.2844 28.0344 25.1133 28.2522 25.1133C28.4699 25.1133 28.6411 25.2844 28.6411 25.5022V26.4277C28.6411 26.6455 28.4699 26.8166 28.2522 26.8166Z" fill="white"/>
<path d="M27.203 26.2644C26.1296 26.2644 24.963 25.4244 24.9241 23.5811C24.9163 23.3633 25.0874 23.1922 25.3052 23.1844H25.313C25.523 23.1844 25.6941 23.3555 25.7019 23.5655C25.733 24.8877 26.4952 25.4866 27.203 25.4866C27.903 25.4866 28.673 24.8877 28.7041 23.5733C28.7119 23.3555 28.883 23.1922 29.1008 23.1922C29.3185 23.1999 29.4819 23.3788 29.4819 23.5888C29.443 25.4244 28.2763 26.2644 27.203 26.2644Z" fill="white"/>
<path d="M29.093 23.9777C29.0619 23.9777 29.0308 23.9777 28.9997 23.97C28.8285 23.9311 28.7041 23.7755 28.7041 23.6044C28.6808 22.9355 28.5641 22.57 28.4708 22.3755C27.5374 22.8189 26.7674 22.5233 26.2852 22.3444C26.2074 22.3133 26.1219 22.2822 26.0441 22.2589C25.9897 23.0522 25.6708 23.7133 25.6552 23.7444C25.593 23.8689 25.4763 23.9466 25.3363 23.9622C25.2041 23.9777 25.0641 23.9155 24.9863 23.8066C24.3719 22.9666 24.333 21.9866 24.8619 21.1311C25.4841 20.1277 26.7908 19.4822 27.8408 19.6533C28.5874 19.7777 29.1163 20.2755 29.3341 21.0533C30.1741 21.7844 29.793 23.0989 29.4274 23.7833C29.3652 23.9 29.233 23.9777 29.093 23.9777ZM25.9119 21.4577C26.1374 21.4577 26.3785 21.5433 26.5574 21.6133C27.0552 21.8 27.6152 22.01 28.3619 21.5433C28.463 21.4811 28.5797 21.4655 28.6885 21.5044C28.6574 21.4577 28.6263 21.4111 28.6185 21.3489C28.4941 20.8044 28.1908 20.4855 27.7163 20.4077C26.9697 20.2833 25.9897 20.7811 25.5308 21.5277C25.5152 21.5511 25.5074 21.5744 25.4919 21.5977C25.6241 21.4889 25.7641 21.4577 25.9119 21.4577Z" fill="white"/>
<path d="M29.552 31.81C29.3342 31.81 29.1631 31.6389 29.1631 31.4211V28.6133C29.1631 28.3955 29.3342 28.2244 29.552 28.2244C29.7698 28.2244 29.9409 28.3955 29.9409 28.6133V31.4211C29.9409 31.6389 29.7698 31.81 29.552 31.81Z" fill="white"/>
<path d="M24.799 31.81C24.5813 31.81 24.4102 31.6389 24.4102 31.4211V28.6133C24.4102 28.3955 24.5813 28.2244 24.799 28.2244C25.0168 28.2244 25.1879 28.3955 25.1879 28.6133V31.4211C25.1879 31.6389 25.0168 31.81 24.799 31.81Z" fill="white"/>
<path d="M17.5189 31.8099C14.9056 31.8099 12.7822 29.6866 12.7822 27.0733C12.7822 24.4599 14.9056 22.3366 17.5189 22.3366C20.1322 22.3366 22.2556 24.4599 22.2556 27.0733C22.2556 29.6866 20.1244 31.8099 17.5189 31.8099ZM17.5189 23.1222C15.3411 23.1222 13.56 24.8955 13.56 27.0811C13.56 29.2666 15.3333 31.0399 17.5189 31.0399C19.7044 31.0399 21.4778 29.2666 21.4778 27.0811C21.4778 24.8955 19.6967 23.1222 17.5189 23.1222Z" fill="white"/>
<path d="M17.5197 29.6866C17.302 29.6866 17.1309 29.5155 17.1309 29.2977V24.8644C17.1309 24.6466 17.302 24.4755 17.5197 24.4755C17.7375 24.4755 17.9086 24.6466 17.9086 24.8644V29.2977C17.9086 29.5077 17.7297 29.6866 17.5197 29.6866Z" fill="white"/>
<path d="M19.7363 27.47H15.303C15.0852 27.47 14.9141 27.2989 14.9141 27.0811C14.9141 26.8633 15.0852 26.6922 15.303 26.6922H19.7363C19.9541 26.6922 20.1252 26.8633 20.1252 27.0811C20.1252 27.2989 19.9463 27.47 19.7363 27.47Z" fill="white"/>
</g>
<defs>
<clipPath id="clip0_194_630">
<rect width="35" height="35" fill="white" transform="translate(-0.00390625 0.177734)"/>
</clipPath>
</defs>
</svg>
