<svg width="50" height="51" viewBox="0 0 50 51" fill="none" xmlns="http://www.w3.org/2000/svg">
<path d="M11.1367 22.0717H18.3337V24.8747H11.1367V22.0717Z" stroke="#796DF6" stroke-width="1.5" stroke-miterlimit="10" stroke-linecap="round" stroke-linejoin="round"/>
<path d="M11.1367 16.6171H18.3337V45.4808H11.1367V16.6171Z" stroke="#796DF6" stroke-width="1.5" stroke-miterlimit="10" stroke-linecap="round" stroke-linejoin="round"/>
<path d="M14.6971 41.3141C15.4083 41.3141 15.9849 40.7375 15.9849 40.0262C15.9849 39.3149 15.4083 38.7383 14.6971 38.7383C13.9858 38.7383 13.4092 39.3149 13.4092 40.0262C13.4092 40.7375 13.9858 41.3141 14.6971 41.3141Z" stroke="#796DF6" stroke-width="1.5" stroke-miterlimit="10" stroke-linecap="round" stroke-linejoin="round"/>
<path d="M25.53 20.405V45.4808H18.333V16.6171H20.53C20.7573 16.6929 20.9088 16.7686 21.0603 16.8444C22.2724 17.602 24.1663 19.5717 25.53 20.405Z" stroke="#796DF6" stroke-width="1.5" stroke-miterlimit="10" stroke-linecap="round" stroke-linejoin="round"/>
<path d="M21.8943 41.3141C22.6056 41.3141 23.1822 40.7375 23.1822 40.0262C23.1822 39.3149 22.6056 38.7383 21.8943 38.7383C21.183 38.7383 20.6064 39.3149 20.6064 40.0262C20.6064 40.7375 21.183 41.3141 21.8943 41.3141Z" stroke="#796DF6" stroke-width="1.5" stroke-miterlimit="10" stroke-linecap="round" stroke-linejoin="round"/>
<path d="M20.9092 21.8444H22.9546" stroke="#796DF6" stroke-width="1.5" stroke-miterlimit="10" stroke-linecap="round" stroke-linejoin="round"/>
<path d="M20.9092 24.0414H22.9546" stroke="#796DF6" stroke-width="1.5" stroke-miterlimit="10" stroke-linecap="round" stroke-linejoin="round"/>
<path d="M20.9092 26.2383H22.9546" stroke="#796DF6" stroke-width="1.5" stroke-miterlimit="10" stroke-linecap="round" stroke-linejoin="round"/>
<path d="M20.9092 28.4353H22.9546" stroke="#796DF6" stroke-width="1.5" stroke-miterlimit="10" stroke-linecap="round" stroke-linejoin="round"/>
<path d="M20.9092 30.6323H22.9546" stroke="#796DF6" stroke-width="1.5" stroke-miterlimit="10" stroke-linecap="round" stroke-linejoin="round"/>
<path d="M25.5303 37.8292H31.9697V40.102H25.5303V37.8292Z" stroke="#796DF6" stroke-width="1.5" stroke-miterlimit="10" stroke-linecap="round" stroke-linejoin="round"/>
<path d="M25.5303 33.1323H31.9697V35.405H25.5303V33.1323Z" stroke="#796DF6" stroke-width="1.5" stroke-miterlimit="10" stroke-linecap="round" stroke-linejoin="round"/>
<path d="M31.9697 23.1322V45.4807H25.5303V20.405C25.606 20.4807 25.6818 20.4807 25.7575 20.5565C27.1212 21.3141 30.0757 21.9959 31.4394 22.7535C31.5909 22.8292 31.7424 22.9807 31.9697 23.1322Z" stroke="#796DF6" stroke-width="1.5" stroke-miterlimit="10" stroke-linecap="round" stroke-linejoin="round"/>
<path d="M28.7125 25.0262C29.3401 25.0262 29.8489 24.5174 29.8489 23.8898C29.8489 23.2622 29.3401 22.7535 28.7125 22.7535C28.0849 22.7535 27.5762 23.2622 27.5762 23.8898C27.5762 24.5174 28.0849 25.0262 28.7125 25.0262Z" stroke="#796DF6" stroke-width="1.5" stroke-miterlimit="10" stroke-linecap="round" stroke-linejoin="round"/>
<path d="M8.86358 41.3898L10.606 28.208L5.22721 27.4504L3.56055 40.708L8.86358 41.3898Z" stroke="#796DF6" stroke-width="1.5" stroke-miterlimit="10" stroke-linecap="round" stroke-linejoin="round"/>
<path d="M8.3333 45.4808L3.03027 44.7232L5.75755 23.4353L11.1363 24.1171L8.3333 45.4808Z" stroke="#796DF6" stroke-width="1.5" stroke-miterlimit="10" stroke-linecap="round" stroke-linejoin="round"/>
<path d="M6.28809 32.602L8.33354 32.905" stroke="#796DF6" stroke-width="1.5" stroke-miterlimit="10" stroke-linecap="round" stroke-linejoin="round"/>
<path d="M5.98438 34.799L8.02983 35.102" stroke="#796DF6" stroke-width="1.5" stroke-miterlimit="10" stroke-linecap="round" stroke-linejoin="round"/>
<path d="M5.68164 36.9959L7.7271 37.2989" stroke="#796DF6" stroke-width="1.5" stroke-miterlimit="10" stroke-linecap="round" stroke-linejoin="round"/>
<path d="M21.0608 11.5414L15.7578 5.25348L32.7275 8.13227L44.0154 21.2383L35.9093 19.8747" stroke="#796DF6" stroke-width="1.5" stroke-miterlimit="10" stroke-linecap="round" stroke-linejoin="round"/>
<path d="M32.8029 23.8898C33.106 24.1928 33.5605 24.1171 33.712 23.7383L36.7423 18.3595C38.1817 15.8595 23.3332 7.45042 21.9696 9.95042L18.9393 15.405C18.712 15.7838 18.9393 16.1625 19.3181 16.3141C19.9242 16.4656 20.7575 16.6928 21.0605 16.9201C22.3484 17.7535 24.4696 19.8747 25.8332 20.6322C27.1969 21.3898 30.1514 22.0716 31.5151 22.8292C31.8181 22.905 32.3484 23.4353 32.8029 23.8898Z" stroke="#796DF6" stroke-width="1.5" stroke-miterlimit="10" stroke-linecap="round" stroke-linejoin="round"/>
<path d="M42.9545 39.3444V40.102C42.9545 40.7838 42.4242 41.3141 41.7424 41.3141C41.0606 41.3141 40.5303 40.7838 40.5303 40.102V39.3444" stroke="#796DF6" stroke-width="1.5" stroke-miterlimit="10"/>
<path d="M48.5605 32.0717H48.8636" stroke="#796DF6" stroke-width="1.5" stroke-miterlimit="10" stroke-linecap="round" stroke-linejoin="round"/>
<path d="M34.6211 32.0717H34.9241" stroke="#796DF6" stroke-width="1.5" stroke-miterlimit="10" stroke-linecap="round" stroke-linejoin="round"/>
<path d="M48.5605 32.0717H48.8636" stroke="#796DF6" stroke-width="1.5" stroke-miterlimit="10" stroke-linecap="round" stroke-linejoin="round"/>
<path d="M34.6211 32.0717H34.9241" stroke="#796DF6" stroke-width="1.5" stroke-miterlimit="10" stroke-linecap="round" stroke-linejoin="round"/>
<path d="M41.7422 24.9504V25.2535" stroke="#796DF6" stroke-width="1.5" stroke-miterlimit="10" stroke-linecap="round" stroke-linejoin="round"/>
<path d="M41.7422 24.9504V25.2535" stroke="#796DF6" stroke-width="1.5" stroke-miterlimit="10" stroke-linecap="round" stroke-linejoin="round"/>
<path d="M46.5908 36.9202L46.7423 37.1474" stroke="#796DF6" stroke-width="1.5" stroke-miterlimit="10" stroke-linecap="round" stroke-linejoin="round"/>
<path d="M36.7422 27.0717L36.8937 27.2989" stroke="#796DF6" stroke-width="1.5" stroke-miterlimit="10" stroke-linecap="round" stroke-linejoin="round"/>
<path d="M46.5908 36.9202L46.7423 37.1474" stroke="#796DF6" stroke-width="1.5" stroke-miterlimit="10" stroke-linecap="round" stroke-linejoin="round"/>
<path d="M36.7422 27.0717L36.8937 27.2989" stroke="#796DF6" stroke-width="1.5" stroke-miterlimit="10" stroke-linecap="round" stroke-linejoin="round"/>
<path d="M36.8937 36.9202L36.7422 37.1474" stroke="#796DF6" stroke-width="1.5" stroke-miterlimit="10" stroke-linecap="round" stroke-linejoin="round"/>
<path d="M46.7423 27.0717L46.5908 27.2989" stroke="#796DF6" stroke-width="1.5" stroke-miterlimit="10" stroke-linecap="round" stroke-linejoin="round"/>
<path d="M36.8937 36.9202L36.7422 37.1474" stroke="#796DF6" stroke-width="1.5" stroke-miterlimit="10" stroke-linecap="round" stroke-linejoin="round"/>
<path d="M46.7423 27.0717L46.5908 27.2989" stroke="#796DF6" stroke-width="1.5" stroke-miterlimit="10" stroke-linecap="round" stroke-linejoin="round"/>
<path d="M40.6061 33.5111C41.2337 33.5111 41.7425 33.0023 41.7425 32.3747C41.7425 31.7471 41.2337 31.2383 40.6061 31.2383C39.9785 31.2383 39.4697 31.7471 39.4697 32.3747C39.4697 33.0023 39.9785 33.5111 40.6061 33.5111Z" stroke="#796DF6" stroke-width="1.5" stroke-miterlimit="10"/>
<path d="M42.8786 33.5111C43.5061 33.5111 44.0149 33.0023 44.0149 32.3747C44.0149 31.7471 43.5061 31.2383 42.8786 31.2383C42.251 31.2383 41.7422 31.7471 41.7422 32.3747C41.7422 33.0023 42.251 33.5111 42.8786 33.5111Z" stroke="#796DF6" stroke-width="1.5" stroke-miterlimit="10"/>
<path d="M41.7422 32.3747V39.0414" stroke="#796DF6" stroke-width="1.5" stroke-miterlimit="10"/>
<path d="M46.2878 30.9353C46.6665 32.6777 45.9847 34.3444 44.8484 35.405C44.2423 36.011 43.7878 36.7686 43.7878 37.602V38.5868C43.7878 38.9656 43.4847 39.3444 43.1059 39.3444H40.3787C39.9999 39.3444 39.6969 39.0414 39.6969 38.5868V37.8292C39.6969 36.8444 39.2423 35.9353 38.5605 35.2535C37.6514 34.4201 37.1211 33.208 37.1211 31.9201C37.1211 28.9656 39.8484 26.6929 42.8787 27.3747C44.5453 27.7535 45.9847 29.1929 46.2878 30.9353Z" stroke="#796DF6" stroke-width="1.5" stroke-miterlimit="10"/>
<path d="M46.2878 30.9353C46.6665 32.6777 45.9847 34.3444 44.8484 35.405C44.2423 36.011 43.7878 36.7686 43.7878 37.602V38.5868C43.7878 38.9656 43.4847 39.3444 43.1059 39.3444H40.3787C39.9999 39.3444 39.6969 39.0414 39.6969 38.5868V37.8292C39.6969 36.8444 39.2423 35.9353 38.5605 35.2535C37.6514 34.4201 37.1211 33.208 37.1211 31.9201C37.1211 28.9656 39.8484 26.6929 42.8787 27.3747C44.5453 27.7535 45.9847 29.1929 46.2878 30.9353Z" stroke="#796DF6" stroke-width="1.5" stroke-miterlimit="10"/>
<path d="M9.0907 14.2686C8.63616 14.4959 8.18161 14.7232 7.72707 14.7989L7.57555 16.0868H5.75737L5.68161 14.7989C5.22707 14.7232 4.77252 14.4959 4.31797 14.2686L3.33313 15.102L2.121 13.8141L2.95434 12.8292C2.65131 12.3747 2.49979 11.9201 2.42404 11.4656L1.21191 11.3898V9.57166L2.49979 9.49591C2.57555 9.04136 2.80282 8.58682 3.0301 8.13227L2.121 7.14742L3.40888 5.85954L4.31797 6.69288C4.77252 6.4656 5.22707 6.23833 5.68161 6.16257L5.75737 4.87469H7.57555L7.65131 6.16257C8.18161 6.23833 8.63616 6.4656 9.0907 6.69288L10.0756 5.85954L11.3634 7.14742L10.5301 8.13227C10.8331 8.58682 10.9846 9.04136 11.0604 9.49591L12.2725 9.57166V11.3898L10.9846 11.4656C10.9089 11.9201 10.6816 12.3747 10.4543 12.8292L11.2877 13.7383L9.99979 15.0262L9.0907 14.2686Z" stroke="#796DF6" stroke-width="1.5" stroke-miterlimit="10" stroke-linecap="round" stroke-linejoin="round"/>
<path d="M6.74257 12.3747C7.78857 12.3747 8.63651 11.5267 8.63651 10.4807C8.63651 9.43474 7.78857 8.58679 6.74257 8.58679C5.69658 8.58679 4.84863 9.43474 4.84863 10.4807C4.84863 11.5267 5.69658 12.3747 6.74257 12.3747Z" stroke="#796DF6" stroke-width="1.5" stroke-miterlimit="10" stroke-linecap="round" stroke-linejoin="round"/>
</svg>
