<svg width="35" height="36" viewBox="0 0 35 36" fill="none" xmlns="http://www.w3.org/2000/svg">
<g clip-path="url(#clip0_165_695)">
<path d="M34.8021 7.27105L28.1187 0.631025C27.9907 0.503809 27.8175 0.432373 27.637 0.432373H15.5481C14.5731 0.432373 13.7799 1.22562 13.7799 2.20056C13.7799 3.66406 12.8326 4.57782 11.946 4.94505C11.0594 5.31234 9.74341 5.336 8.70858 4.30117C8.37465 3.96717 7.93059 3.78328 7.45822 3.78328C6.98586 3.78328 6.5418 3.96717 6.20786 4.30117L3.87271 6.63626C3.1833 7.32573 3.1833 8.44751 3.87271 9.13698C4.90596 10.1702 4.88148 11.4863 4.51405 12.3735C4.14662 13.2605 3.23334 14.2084 1.77216 14.2084C0.797149 14.2084 0.00390625 15.0016 0.00390625 15.9765V19.2787C0.00390625 20.2537 0.797148 21.0469 1.77209 21.0469C3.23327 21.0469 4.14655 21.9948 4.51398 22.8818C4.88142 23.7689 4.90589 25.085 3.87264 26.1182C3.18323 26.8076 3.18323 27.9295 3.87264 28.6189L6.20772 30.954C6.8972 31.6434 8.01897 31.6434 8.70845 30.954C9.74163 29.9208 11.0577 29.9453 11.9449 30.3127C12.8319 30.6801 13.7798 31.5934 13.7798 33.0546C13.7798 34.0296 14.573 34.8227 15.5479 34.8227L34.3203 34.8232C34.6979 34.8232 35.0039 34.5172 35.0039 34.1396V7.75599C35.0039 7.57395 34.9313 7.39942 34.8021 7.27105ZM28.3205 2.75878L32.662 7.07205H28.3205V2.75878ZM16.5156 23.9954C13.3045 23.6531 10.7948 20.9281 10.7948 17.6277C10.7948 14.3273 13.3045 11.6022 16.5156 11.26V23.9954ZM15.5481 33.4557C15.3269 33.4557 15.1471 33.2758 15.1471 33.0547C15.1471 31.2688 14.1206 29.7341 12.4681 29.0497C11.9138 28.82 11.3417 28.7079 10.7784 28.7079C9.66233 28.7079 8.58096 29.1481 7.74178 29.9873C7.58544 30.1437 7.33094 30.1437 7.1746 29.9873L4.83951 27.6522C4.68311 27.4958 4.68311 27.2413 4.83951 27.085C6.10238 25.8221 6.46168 24.0111 5.7772 22.3586C5.09271 20.7062 3.55812 19.6797 1.77216 19.6797C1.55102 19.6797 1.37116 19.4998 1.37116 19.2787V15.9765C1.37116 15.7554 1.55102 15.5755 1.77216 15.5755C3.55805 15.5755 5.09271 14.5491 5.7772 12.8966C6.46168 11.2442 6.10238 9.43305 4.83951 8.17018C4.68311 8.01384 4.68311 7.75934 4.83951 7.603L7.17467 5.26791C7.25034 5.19224 7.3511 5.15047 7.45822 5.15047C7.56534 5.15047 7.6661 5.19217 7.74178 5.26791C9.00595 6.53208 10.8173 6.89233 12.4692 6.20819C14.121 5.52398 15.1471 3.98836 15.1471 2.20056C15.1471 1.97948 15.3269 1.79956 15.5481 1.79956H16.5156V9.88647C12.5494 10.2338 9.42766 13.5728 9.42766 17.6276C9.42766 21.6824 12.5494 25.0213 16.5156 25.3686V33.4556L15.5481 33.4557ZM17.8828 33.456V1.79963H26.9534V7.75571C26.9534 8.13326 27.2595 8.43931 27.637 8.43931H33.6367V33.4561L17.8828 33.456ZM30.0768 13.2387C30.0768 13.6162 29.7708 13.9223 29.3932 13.9223H20.5845C20.207 13.9223 19.9009 13.6162 19.9009 13.2387C19.9009 12.8611 20.207 12.5551 20.5845 12.5551H29.3932C29.7708 12.5551 30.0768 12.8611 30.0768 13.2387ZM30.0768 18.1756C30.0768 18.5531 29.7708 18.8592 29.3932 18.8592H20.5845C20.207 18.8592 19.9009 18.5531 19.9009 18.1756C19.9009 17.798 20.207 17.492 20.5845 17.492H29.3932C29.7708 17.492 30.0768 17.798 30.0768 18.1756ZM19.9009 8.30218C19.9009 7.92463 20.207 7.61858 20.5845 7.61858H24.4703C24.8479 7.61858 25.1539 7.92463 25.1539 8.30218C25.1539 8.67973 24.8479 8.98577 24.4703 8.98577H20.5845C20.207 8.98577 19.9009 8.67973 19.9009 8.30218ZM30.0768 23.1121C30.0768 23.4896 29.7708 23.7957 29.3932 23.7957H20.5845C20.207 23.7957 19.9009 23.4896 19.9009 23.1121C19.9009 22.7346 20.207 22.4285 20.5845 22.4285H29.3932C29.7708 22.4285 30.0768 22.7346 30.0768 23.1121ZM30.0768 28.049C30.0768 28.4266 29.7708 28.7326 29.3932 28.7326H20.5845C20.207 28.7326 19.9009 28.4266 19.9009 28.049C19.9009 27.6715 20.207 27.3654 20.5845 27.3654H29.3932C29.7708 27.3654 30.0768 27.6715 30.0768 28.049Z" fill="white"/>
</g>
<defs>
<clipPath id="clip0_165_695">
<rect width="35" height="35" fill="white" transform="translate(0.00390625 0.127808)"/>
</clipPath>
</defs>
</svg>
