<svg width="50" height="51" viewBox="0 0 50 51" fill="none" xmlns="http://www.w3.org/2000/svg">
<g clip-path="url(#clip0_194_1052)">
<path d="M45.8333 13.802H33.3333V9.8853L40.4308 7.9128C40.7853 7.81792 41.0986 7.6087 41.322 7.31759C41.5455 7.02649 41.6666 6.66977 41.6666 6.3028C41.6666 5.93583 41.5455 5.57912 41.322 5.28801C41.0986 4.9969 40.7853 4.78768 40.4308 4.6928L25.4608 0.531968C25.1595 0.448654 24.8413 0.448654 24.54 0.531968L9.56917 4.69197C9.21467 4.78685 8.9014 4.99607 8.67796 5.28718C8.45452 5.57828 8.3334 5.935 8.3334 6.30197C8.3334 6.66894 8.45452 7.02565 8.67796 7.31676C8.9014 7.60787 9.21467 7.81709 9.56917 7.91197L16.6667 9.8853V13.802H4.16667C3.062 13.8033 2.00296 14.2427 1.22185 15.0238C0.440735 15.8049 0.00132321 16.864 0 17.9686L0 46.302C0.00132321 47.4066 0.440735 48.4657 1.22185 49.2468C2.00296 50.0279 3.062 50.4673 4.16667 50.4686H45.8333C46.938 50.4673 47.997 50.0279 48.7781 49.2468C49.5593 48.4657 49.9987 47.4066 50 46.302V17.9686C49.9987 16.864 49.5593 15.8049 48.7781 15.0238C47.997 14.2427 46.938 13.8033 45.8333 13.802ZM25.0142 2.1353L39.9842 6.30197L25.0133 10.4686C25.0045 10.4703 24.9955 10.4703 24.9867 10.4686L10.0158 6.30197L25.0142 2.1353ZM24.5392 12.0695C24.689 12.1125 24.8441 12.1346 25 12.1353C25.1555 12.1354 25.3102 12.1143 25.46 12.0728L31.6667 10.3478V14.307C31.25 14.6211 29.7 15.4686 25 15.4686C20.2042 15.4686 18.685 14.5861 18.3333 14.3303V10.347L24.5392 12.0695ZM4.16667 15.4686H17.1225C17.845 16.1411 19.7892 17.1353 25 17.1353C30.2108 17.1353 32.155 16.1411 32.8775 15.4686H45.8333C46.4964 15.4686 47.1323 15.732 47.6011 16.2009C48.0699 16.6697 48.3333 17.3056 48.3333 17.9686V38.802H1.66667V17.9686C1.66667 17.3056 1.93006 16.6697 2.3989 16.2009C2.86774 15.732 3.50363 15.4686 4.16667 15.4686ZM45.8333 48.802H4.16667C3.50363 48.802 2.86774 48.5386 2.3989 48.0697C1.93006 47.6009 1.66667 46.965 1.66667 46.302V40.4686H48.3333V46.302C48.3333 46.965 48.0699 47.6009 47.6011 48.0697C47.1323 48.5386 46.4964 48.802 45.8333 48.802Z" fill="white"/>
<path d="M9.20083 43.302L7.57583 42.3703C7.30384 42.2151 6.99594 42.1338 6.68278 42.1345C6.36961 42.1353 6.0621 42.218 5.79083 42.3745C5.55299 42.506 5.35441 42.6984 5.21544 42.932C5.07647 43.1655 5.00212 43.4319 5 43.7036V45.567C5.00212 45.8387 5.07647 46.1051 5.21544 46.3386C5.35441 46.5722 5.55299 46.7646 5.79083 46.8961C6.06194 47.0526 6.36933 47.1354 6.68236 47.1361C6.9954 47.1368 7.30316 47.0555 7.575 46.9003L9.20083 45.9686C9.44234 45.8396 9.64426 45.6474 9.78505 45.4126C9.92584 45.1778 10.0002 44.9091 10.0002 44.6353C10.0002 44.3615 9.92584 44.0928 9.78505 43.858C9.64426 43.6232 9.44234 43.431 9.20083 43.302ZM6.75 45.4545C6.72444 45.4679 6.69524 45.4729 6.66667 45.4686V43.802C6.69507 43.7973 6.72423 43.8016 6.75 43.8145L8.17583 44.6353L6.75 45.4545Z" fill="white"/>
<path d="M44.167 43.802H25.0003C25.0003 43.3599 24.8247 42.936 24.5122 42.6234C24.1996 42.3109 23.7757 42.1353 23.3337 42.1353H21.667C21.225 42.1353 20.801 42.3109 20.4885 42.6234C20.1759 42.936 20.0003 43.3599 20.0003 43.802H12.5003C12.2793 43.802 12.0674 43.8897 11.9111 44.046C11.7548 44.2023 11.667 44.4143 11.667 44.6353C11.667 44.8563 11.7548 45.0683 11.9111 45.2245C12.0674 45.3808 12.2793 45.4686 12.5003 45.4686H20.0003C20.0003 45.9106 20.1759 46.3346 20.4885 46.6471C20.801 46.9597 21.225 47.1353 21.667 47.1353H23.3337C23.7757 47.1353 24.1996 46.9597 24.5122 46.6471C24.8247 46.3346 25.0003 45.9106 25.0003 45.4686H44.167C44.388 45.4686 44.6 45.3808 44.7562 45.2245C44.9125 45.0683 45.0003 44.8563 45.0003 44.6353C45.0003 44.4143 44.9125 44.2023 44.7562 44.046C44.6 43.8897 44.388 43.802 44.167 43.802ZM21.667 45.4686V43.802H23.3337V45.4686H21.667Z" fill="white"/>
<path d="M30.244 33.5578C30.4003 33.714 30.6122 33.8018 30.8332 33.8018C31.0541 33.8018 31.266 33.714 31.4223 33.5578L37.2557 27.7245C37.4119 27.5682 37.4996 27.3563 37.4996 27.1353C37.4996 26.9143 37.4119 26.7024 37.2557 26.5461L31.4223 20.7128C31.2652 20.561 31.0547 20.477 30.8362 20.4789C30.6177 20.4808 30.4086 20.5685 30.2541 20.723C30.0996 20.8775 30.012 21.0865 30.0101 21.305C30.0082 21.5235 30.0922 21.734 30.244 21.8911L35.4882 27.1353L30.244 32.3795C30.0878 32.5357 30 32.7477 30 32.9686C30 33.1896 30.0878 33.4015 30.244 33.5578Z" fill="white"/>
<path d="M18.5773 33.5578C18.7345 33.7096 18.945 33.7936 19.1635 33.7917C19.382 33.7898 19.591 33.7022 19.7455 33.5477C19.9 33.3932 19.9877 33.1841 19.9896 32.9656C19.9914 32.7471 19.9075 32.5366 19.7557 32.3795L14.5115 27.1353L19.7557 21.8911C19.9075 21.734 19.9914 21.5235 19.9896 21.305C19.9877 21.0865 19.9 20.8775 19.7455 20.723C19.591 20.5685 19.382 20.4808 19.1635 20.4789C18.945 20.477 18.7345 20.561 18.5773 20.7128L12.744 26.5461C12.5878 26.7024 12.5 26.9143 12.5 27.1353C12.5 27.3563 12.5878 27.5682 12.744 27.7245L18.5773 33.5578Z" fill="white"/>
<path d="M22.2069 34.5828C22.3009 34.6171 22.4002 34.6349 22.5002 34.6353C22.6699 34.6355 22.8355 34.5839 22.9751 34.4874C23.1146 34.3909 23.2214 34.2541 23.2811 34.0953L28.2811 20.762C28.3584 20.5549 28.3503 20.3255 28.2586 20.1244C28.1669 19.9233 27.999 19.7668 27.7919 19.6895C27.5848 19.6121 27.3555 19.6202 27.1543 19.7119C26.9532 19.8037 26.7968 19.9716 26.7194 20.1786L21.7194 33.512C21.6424 33.7186 21.6505 33.9474 21.7419 34.1481C21.8333 34.3488 22.0005 34.5052 22.2069 34.5828Z" fill="white"/>
</g>
<defs>
<clipPath id="clip0_194_1052">
<rect width="50" height="50" fill="white" transform="translate(0 0.468628)"/>
</clipPath>
</defs>
</svg>
