<svg width="51" height="31" viewBox="0 0 51 31" fill="none" xmlns="http://www.w3.org/2000/svg">
<g clip-path="url(#clip0_165_103)">
<path fill-rule="evenodd" clip-rule="evenodd" d="M50.148 10.1958C50.148 18.4556 39.3976 24.6924 39.3398 24.7292L41.347 30.5773H31.9313C31.9313 30.5773 31.4689 28.9852 31.2902 28.155C25.521 29.952 17.7972 30.0361 13.9878 26.0638C13.4256 26.6418 9.58469 30.5773 9.58469 30.5773H0.147949L22.5471 7.89967H33.497L37.2013 18.4556C36.2083 19.3908 31.6896 21.8551 29.3987 22.7168C29.0099 21.4715 26.3617 13.0489 26.3617 13.0489L16.1683 23.7204C14.6446 23.1634 12.753 21.6922 12.38 19.3488C10.6145 27.0306 26.0202 28.5911 37.4851 20.5415C48.9447 12.4919 46.6854 2.46672 33.6126 3.55436C37.0542 1.69433 50.148 1.93603 50.148 10.1958Z" fill="#00CAE3"/>
<path d="M33.2972 1.62072L31.0904 2.29852L29.7926 0.41748L29.74 2.71361L27.5332 3.39667L29.7295 4.16906L29.6559 6.4757L31.0851 4.60516L33.2762 5.36178L31.9206 3.49651L33.2972 1.62072Z" fill="#F1B31C"/>
</g>
<defs>
<clipPath id="clip0_165_103">
<rect width="50" height="30.165" fill="white" transform="translate(0.147949 0.41748)"/>
</clipPath>
</defs>
</svg>
