<svg width="49" height="51" viewBox="0 0 49 51" fill="none" xmlns="http://www.w3.org/2000/svg">
<g clip-path="url(#clip0_165_108)">
<path d="M13.9779 24.3877C8.95462 24.0521 4.01663 22.8688 0.301758 21.748C0.347269 23.2727 0.597582 24.8087 1.06976 26.339C3.85734 35.3673 9.64298 43.8837 27.0227 50.4999C24.3489 46.9841 12.2997 35.5266 13.9779 24.3877Z" fill="#0F79F3"/>
<path d="M26.2378 41.1872C27.4211 41.1189 28.7011 40.88 30.5386 40.4476C41.6264 37.8478 48.9309 29.2291 48.692 20.0073C26.892 22.9371 25.009 33.4389 26.2378 41.1872Z" fill="#796DF6"/>
<path d="M17.1863 11.7925C17.9031 8.62375 20.8898 6.53591 23.8481 7.12756C26.812 7.71921 28.6325 10.7628 27.91 13.9315C27.5004 15.7463 26.3398 17.2083 24.8664 18.0162C32.9333 17.7374 41.2733 16.5882 47.5083 14.1932C43.6171 4.08967 30.9194 -1.66184 18.4493 1.26227C9.73384 3.3046 3.35655 9.06748 1.14355 15.9226C5.08029 17.1685 12.072 18.0105 19.8203 18.0787C17.7325 16.9467 16.5947 14.4094 17.1863 11.7925Z" fill="#00CAE3"/>
</g>
<defs>
<clipPath id="clip0_165_108">
<rect width="48.3957" height="50" fill="white" transform="translate(0.301758 0.5)"/>
</clipPath>
</defs>
</svg>
